<?xml version="1.0" encoding="utf-8" standalone="no"?>
<!DOCTYPE svg PUBLIC "-//W3C//DTD SVG 1.1//EN"
  "http://www.w3.org/Graphics/SVG/1.1/DTD/svg11.dtd">
<svg xmlns:xlink="http://www.w3.org/1999/xlink" width="1152pt" height="662.4pt" viewBox="0 0 1152 662.4" xmlns="http://www.w3.org/2000/svg" version="1.1">
 <metadata>
  <rdf:RDF xmlns:dc="http://purl.org/dc/elements/1.1/" xmlns:cc="http://creativecommons.org/ns#" xmlns:rdf="http://www.w3.org/1999/02/22-rdf-syntax-ns#">
   <cc:Work>
    <dc:type rdf:resource="http://purl.org/dc/dcmitype/StillImage"/>
    <dc:date>2026-07-03T10:31:55.377457</dc:date>
    <dc:format>image/svg+xml</dc:format>
    <dc:creator>
     <cc:Agent>
      <dc:title>Matplotlib v3.10.8, https://matplotlib.org/</dc:title>
     </cc:Agent>
    </dc:creator>
   </cc:Work>
  </rdf:RDF>
 </metadata>
 <defs>
  <style type="text/css">*{stroke-linejoin: round; stroke-linecap: butt}</style>
 </defs>
 <g id="figure_1">
  <g id="patch_1">
   <path d="M 0 662.4 
L 1152 662.4 
L 1152 0 
L 0 0 
z
" style="fill: #ffffff"/>
  </g>
  <g id="axes_1">
   <g id="patch_2">
    <path d="M 229.5792 156.564 
L 925.9848 156.564 
Q 928.836 156.564 928.836 153.7128 
L 928.836 27.5472 
Q 928.836 24.696 925.9848 24.696 
L 229.5792 24.696 
Q 226.728 24.696 226.728 27.5472 
L 226.728 153.7128 
Q 226.728 156.564 229.5792 156.564 
z
" clip-path="url(#p62f52d22d2)" style="fill: #ffffff; stroke: #3e6e93; stroke-width: 1.4; stroke-linejoin: miter"/>
   </g>
   <g id="patch_3">
    <path d="M 229.5792 318.3696 
L 925.9848 318.3696 
Q 928.836 318.3696 928.836 315.5184 
L 928.836 189.3528 
Q 928.836 186.5016 925.9848 186.5016 
L 229.5792 186.5016 
Q 226.728 186.5016 226.728 189.3528 
L 226.728 315.5184 
Q 226.728 318.3696 229.5792 318.3696 
z
" clip-path="url(#p62f52d22d2)" style="fill: #ffffff; stroke: #a9772f; stroke-width: 1.4; stroke-linejoin: miter"/>
   </g>
   <g id="patch_4">
    <path d="M 229.5792 480.1752 
L 925.9848 480.1752 
Q 928.836 480.1752 928.836 477.324 
L 928.836 351.1584 
Q 928.836 348.3072 925.9848 348.3072 
L 229.5792 348.3072 
Q 226.728 348.3072 226.728 351.1584 
L 226.728 477.324 
Q 226.728 480.1752 229.5792 480.1752 
z
" clip-path="url(#p62f52d22d2)" style="fill: #ffffff; stroke: #3f8a6e; stroke-width: 1.4; stroke-linejoin: miter"/>
   </g>
   <g id="patch_5">
    <path d="M 229.5792 641.9808 
L 925.9848 641.9808 
Q 928.836 641.9808 928.836 639.1296 
L 928.836 512.964 
Q 928.836 510.1128 925.9848 510.1128 
L 229.5792 510.1128 
Q 226.728 510.1128 226.728 512.964 
L 226.728 639.1296 
Q 226.728 641.9808 229.5792 641.9808 
z
" clip-path="url(#p62f52d22d2)" style="fill: #ffffff; stroke: #6e5c8a; stroke-width: 1.4; stroke-linejoin: miter"/>
   </g>
   <g id="patch_6">
    <path d="M 953.0712 641.9808 
L 1122.0048 641.9808 
Q 1124.856 641.9808 1124.856 639.1296 
L 1124.856 27.5472 
Q 1124.856 24.696 1122.0048 24.696 
L 953.0712 24.696 
Q 950.22 24.696 950.22 27.5472 
L 950.22 639.1296 
Q 950.22 641.9808 953.0712 641.9808 
z
" clip-path="url(#p62f52d22d2)" style="fill: #f4f6f8; stroke-dasharray: 7,4.2; stroke-dashoffset: 0; stroke: #2b3e52; stroke-width: 1.4; stroke-linejoin: miter"/>
   </g>
   <g id="text_1">
    <text style="font-weight: 700; font-size: 9.3px; font-family: 'DejaVu Sans'; fill: #3e6e93" transform="translate(302.305631 50.295347)">Accessible user interfaces and assistive technologies ensuring perceivable,</text>
    <text style="font-weight: 700; font-size: 9.3px; font-family: 'DejaVu Sans'; fill: #3e6e93" transform="translate(314.534405 60.781969)">operable, understandable, and robust interaction (WCAG 2.1 Level AA)</text>
   </g>
   <g id="text_2">
    <text style="font-weight: 700; font-size: 9.6px; font-family: 'DejaVu Sans'; text-anchor: middle; fill: #3e6e93" x="846.864" y="53.3745" transform="rotate(-0 846.864 53.3745)">Layer Function</text>
   </g>
   <g id="text_3">
    <text style="font-size: 8.6px; font-family: 'DejaVu Sans'; fill: #20242a" transform="translate(775.584 78.275456)">Ensures accessibility and</text>
    <text style="font-size: 8.6px; font-family: 'DejaVu Sans'; fill: #20242a" transform="translate(775.584 88.232308)">usability for people with</text>
    <text style="font-size: 8.6px; font-family: 'DejaVu Sans'; fill: #20242a" transform="translate(775.584 98.189159)">disabilities (PwDs).</text>
   </g>
   <g id="text_4">
    <text style="font-weight: 700; font-size: 9.3px; font-family: 'DejaVu Sans'; fill: #a9772f" transform="translate(304.466428 212.100947)">Applies HCI principles (AAD, PTD, CID, UAC) to present information clearly,</text>
    <text style="font-weight: 700; font-size: 9.3px; font-family: 'DejaVu Sans'; fill: #a9772f" transform="translate(351.993787 222.587569)">reduce cognitive load, and support inclusive interaction.</text>
   </g>
   <g id="text_5">
    <text style="font-weight: 700; font-size: 9.6px; font-family: 'DejaVu Sans'; text-anchor: middle; fill: #a9772f" x="846.864" y="215.1801" transform="rotate(-0 846.864 215.1801)">Layer Function</text>
   </g>
   <g id="text_6">
    <text style="font-size: 8.6px; font-family: 'DejaVu Sans'; fill: #20242a" transform="translate(775.584 240.081056)">Abstracts complexity and</text>
    <text style="font-size: 8.6px; font-family: 'DejaVu Sans'; fill: #20242a" transform="translate(775.584 250.037908)">presents information in an</text>
    <text style="font-size: 8.6px; font-family: 'DejaVu Sans'; fill: #20242a" transform="translate(775.584 259.994759)">accessible, inclusive, and</text>
    <text style="font-size: 8.6px; font-family: 'DejaVu Sans'; fill: #20242a" transform="translate(775.584 269.951611)">user-friendly manner.</text>
   </g>
   <g id="text_7">
    <text style="font-weight: 700; font-size: 9.3px; font-family: 'DejaVu Sans'; fill: #3f8a6e" transform="translate(279.99217 373.906547)">Implements consent management, access control, and auditable workflows through</text>
    <text style="font-weight: 700; font-size: 9.3px; font-family: 'DejaVu Sans'; fill: #3f8a6e" transform="translate(407.187834 384.393169)">smart contracts and off-chain logic.</text>
   </g>
   <g id="text_8">
    <text style="font-weight: 700; font-size: 9.6px; font-family: 'DejaVu Sans'; text-anchor: middle; fill: #3f8a6e" x="846.864" y="376.9857" transform="rotate(-0 846.864 376.9857)">Layer Function</text>
   </g>
   <g id="text_9">
    <text style="font-size: 8.6px; font-family: 'DejaVu Sans'; fill: #20242a" transform="translate(775.584 401.886656)">Enforces consent, access</text>
    <text style="font-size: 8.6px; font-family: 'DejaVu Sans'; fill: #20242a" transform="translate(775.584 411.843508)">control, and</text>
    <text style="font-size: 8.6px; font-family: 'DejaVu Sans'; fill: #20242a" transform="translate(775.584 421.800359)">accountability with</text>
    <text style="font-size: 8.6px; font-family: 'DejaVu Sans'; fill: #20242a" transform="translate(775.584 431.757211)">privacy-preserving</text>
    <text style="font-size: 8.6px; font-family: 'DejaVu Sans'; fill: #20242a" transform="translate(775.584 441.714062)">mechanisms.</text>
   </g>
   <g id="text_10">
    <text style="font-weight: 700; font-size: 9.3px; font-family: 'DejaVu Sans'; fill: #6e5c8a" transform="translate(292.2936 535.712147)">Provides immutable storage, transparency, and data integrity using blockchain</text>
    <text style="font-weight: 700; font-size: 9.3px; font-family: 'DejaVu Sans'; fill: #6e5c8a" transform="translate(389.561428 546.198769)">and secure off-chain storage mechanisms.</text>
   </g>
   <g id="text_11">
    <text style="font-weight: 700; font-size: 9.6px; font-family: 'DejaVu Sans'; text-anchor: middle; fill: #6e5c8a" x="846.864" y="538.7913" transform="rotate(-0 846.864 538.7913)">Layer Function</text>
   </g>
   <g id="text_12">
    <text style="font-size: 8.6px; font-family: 'DejaVu Sans'; fill: #20242a" transform="translate(775.584 563.692256)">Guarantees tamper</text>
    <text style="font-size: 8.6px; font-family: 'DejaVu Sans'; fill: #20242a" transform="translate(775.584 573.649108)">resistance, transparency,</text>
    <text style="font-size: 8.6px; font-family: 'DejaVu Sans'; fill: #20242a" transform="translate(775.584 583.605959)">and long-term integrity of</text>
    <text style="font-size: 8.6px; font-family: 'DejaVu Sans'; fill: #20242a" transform="translate(775.584 593.562811)">healthcare data and</text>
    <text style="font-size: 8.6px; font-family: 'DejaVu Sans'; fill: #20242a" transform="translate(775.584 603.519662)">transactions.</text>
   </g>
   <g id="text_13">
    <text style="font-weight: 700; font-size: 10.2px; font-family: 'DejaVu Sans'; fill: #2b3e52" transform="translate(998.311031 105.152006)">Cross-Cutting</text>
    <text style="font-weight: 700; font-size: 10.2px; font-family: 'DejaVu Sans'; fill: #2b3e52" transform="translate(1007.503781 116.265942)">Security &amp;</text>
    <text style="font-weight: 700; font-size: 10.2px; font-family: 'DejaVu Sans'; fill: #2b3e52" transform="translate(1003.364016 127.379878)">Governance</text>
   </g>
   <g id="patch_7">
    <path d="M 29.9952 156.564 
L 213.1848 156.564 
Q 216.036 156.564 216.036 153.7128 
L 216.036 27.5472 
Q 216.036 24.696 213.1848 24.696 
L 29.9952 24.696 
Q 27.144 24.696 27.144 27.5472 
L 27.144 153.7128 
Q 27.144 156.564 29.9952 156.564 
z
" clip-path="url(#p62f52d22d2)" style="fill: #3e6e93"/>
   </g>
   <g id="patch_8">
    <path d="M 29.9952 318.3696 
L 213.1848 318.3696 
Q 216.036 318.3696 216.036 315.5184 
L 216.036 189.3528 
Q 216.036 186.5016 213.1848 186.5016 
L 29.9952 186.5016 
Q 27.144 186.5016 27.144 189.3528 
L 27.144 315.5184 
Q 27.144 318.3696 29.9952 318.3696 
z
" clip-path="url(#p62f52d22d2)" style="fill: #a9772f"/>
   </g>
   <g id="patch_9">
    <path d="M 29.9952 480.1752 
L 213.1848 480.1752 
Q 216.036 480.1752 216.036 477.324 
L 216.036 351.1584 
Q 216.036 348.3072 213.1848 348.3072 
L 29.9952 348.3072 
Q 27.144 348.3072 27.144 351.1584 
L 27.144 477.324 
Q 27.144 480.1752 29.9952 480.1752 
z
" clip-path="url(#p62f52d22d2)" style="fill: #3f8a6e"/>
   </g>
   <g id="patch_10">
    <path d="M 29.9952 641.9808 
L 213.1848 641.9808 
Q 216.036 641.9808 216.036 639.1296 
L 216.036 512.964 
Q 216.036 510.1128 213.1848 510.1128 
L 29.9952 510.1128 
Q 27.144 510.1128 27.144 512.964 
L 27.144 639.1296 
Q 27.144 641.9808 29.9952 641.9808 
z
" clip-path="url(#p62f52d22d2)" style="fill: #6e5c8a"/>
   </g>
   <g id="patch_11">
    <path d="M 247.3992 146.5848 
L 335.0736 146.5848 
Q 338.6376 146.5848 338.6376 143.0208 
L 338.6376 84.5712 
Q 338.6376 81.0072 335.0736 81.0072 
L 247.3992 81.0072 
Q 243.8352 81.0072 243.8352 84.5712 
L 243.8352 143.0208 
Q 243.8352 146.5848 247.3992 146.5848 
z
" clip-path="url(#p62f52d22d2)" style="fill: #ffffff; stroke: #3e6e93; stroke-width: 1.1; stroke-linejoin: miter"/>
   </g>
   <g id="patch_12">
    <path d="M 352.1808 146.5848 
L 439.8552 146.5848 
Q 443.4192 146.5848 443.4192 143.0208 
L 443.4192 84.5712 
Q 443.4192 81.0072 439.8552 81.0072 
L 352.1808 81.0072 
Q 348.6168 81.0072 348.6168 84.5712 
L 348.6168 143.0208 
Q 348.6168 146.5848 352.1808 146.5848 
z
" clip-path="url(#p62f52d22d2)" style="fill: #ffffff; stroke: #3e6e93; stroke-width: 1.1; stroke-linejoin: miter"/>
   </g>
   <g id="patch_13">
    <path d="M 456.9624 146.5848 
L 544.6368 146.5848 
Q 548.2008 146.5848 548.2008 143.0208 
L 548.2008 84.5712 
Q 548.2008 81.0072 544.6368 81.0072 
L 456.9624 81.0072 
Q 453.3984 81.0072 453.3984 84.5712 
L 453.3984 143.0208 
Q 453.3984 146.5848 456.9624 146.5848 
z
" clip-path="url(#p62f52d22d2)" style="fill: #ffffff; stroke: #3e6e93; stroke-width: 1.1; stroke-linejoin: miter"/>
   </g>
   <g id="patch_14">
    <path d="M 561.744 146.5848 
L 649.4184 146.5848 
Q 652.9824 146.5848 652.9824 143.0208 
L 652.9824 84.5712 
Q 652.9824 81.0072 649.4184 81.0072 
L 561.744 81.0072 
Q 558.18 81.0072 558.18 84.5712 
L 558.18 143.0208 
Q 558.18 146.5848 561.744 146.5848 
z
" clip-path="url(#p62f52d22d2)" style="fill: #ffffff; stroke: #3e6e93; stroke-width: 1.1; stroke-linejoin: miter"/>
   </g>
   <g id="patch_15">
    <path d="M 666.5256 146.5848 
L 754.2 146.5848 
Q 757.764 146.5848 757.764 143.0208 
L 757.764 84.5712 
Q 757.764 81.0072 754.2 81.0072 
L 666.5256 81.0072 
Q 662.9616 81.0072 662.9616 84.5712 
L 662.9616 143.0208 
Q 662.9616 146.5848 666.5256 146.5848 
z
" clip-path="url(#p62f52d22d2)" style="fill: #ffffff; stroke: #3e6e93; stroke-width: 1.1; stroke-linejoin: miter"/>
   </g>
   <g id="patch_16">
    <path d="M 247.3992 308.3904 
L 335.0736 308.3904 
Q 338.6376 308.3904 338.6376 304.8264 
L 338.6376 246.3768 
Q 338.6376 242.8128 335.0736 242.8128 
L 247.3992 242.8128 
Q 243.8352 242.8128 243.8352 246.3768 
L 243.8352 304.8264 
Q 243.8352 308.3904 247.3992 308.3904 
z
" clip-path="url(#p62f52d22d2)" style="fill: #ffffff; stroke: #a9772f; stroke-width: 1.1; stroke-linejoin: miter"/>
   </g>
   <g id="patch_17">
    <path d="M 352.1808 308.3904 
L 439.8552 308.3904 
Q 443.4192 308.3904 443.4192 304.8264 
L 443.4192 246.3768 
Q 443.4192 242.8128 439.8552 242.8128 
L 352.1808 242.8128 
Q 348.6168 242.8128 348.6168 246.3768 
L 348.6168 304.8264 
Q 348.6168 308.3904 352.1808 308.3904 
z
" clip-path="url(#p62f52d22d2)" style="fill: #ffffff; stroke: #a9772f; stroke-width: 1.1; stroke-linejoin: miter"/>
   </g>
   <g id="patch_18">
    <path d="M 456.9624 308.3904 
L 544.6368 308.3904 
Q 548.2008 308.3904 548.2008 304.8264 
L 548.2008 246.3768 
Q 548.2008 242.8128 544.6368 242.8128 
L 456.9624 242.8128 
Q 453.3984 242.8128 453.3984 246.3768 
L 453.3984 304.8264 
Q 453.3984 308.3904 456.9624 308.3904 
z
" clip-path="url(#p62f52d22d2)" style="fill: #ffffff; stroke: #a9772f; stroke-width: 1.1; stroke-linejoin: miter"/>
   </g>
   <g id="patch_19">
    <path d="M 561.744 308.3904 
L 649.4184 308.3904 
Q 652.9824 308.3904 652.9824 304.8264 
L 652.9824 246.3768 
Q 652.9824 242.8128 649.4184 242.8128 
L 561.744 242.8128 
Q 558.18 242.8128 558.18 246.3768 
L 558.18 304.8264 
Q 558.18 308.3904 561.744 308.3904 
z
" clip-path="url(#p62f52d22d2)" style="fill: #ffffff; stroke: #a9772f; stroke-width: 1.1; stroke-linejoin: miter"/>
   </g>
   <g id="patch_20">
    <path d="M 666.5256 308.3904 
L 754.2 308.3904 
Q 757.764 308.3904 757.764 304.8264 
L 757.764 246.3768 
Q 757.764 242.8128 754.2 242.8128 
L 666.5256 242.8128 
Q 662.9616 242.8128 662.9616 246.3768 
L 662.9616 304.8264 
Q 662.9616 308.3904 666.5256 308.3904 
z
" clip-path="url(#p62f52d22d2)" style="fill: #ffffff; stroke: #a9772f; stroke-width: 1.1; stroke-linejoin: miter"/>
   </g>
   <g id="patch_21">
    <path d="M 247.3992 470.196 
L 335.0736 470.196 
Q 338.6376 470.196 338.6376 466.632 
L 338.6376 408.1824 
Q 338.6376 404.6184 335.0736 404.6184 
L 247.3992 404.6184 
Q 243.8352 404.6184 243.8352 408.1824 
L 243.8352 466.632 
Q 243.8352 470.196 247.3992 470.196 
z
" clip-path="url(#p62f52d22d2)" style="fill: #ffffff; stroke: #3f8a6e; stroke-width: 1.1; stroke-linejoin: miter"/>
   </g>
   <g id="patch_22">
    <path d="M 352.1808 470.196 
L 439.8552 470.196 
Q 443.4192 470.196 443.4192 466.632 
L 443.4192 408.1824 
Q 443.4192 404.6184 439.8552 404.6184 
L 352.1808 404.6184 
Q 348.6168 404.6184 348.6168 408.1824 
L 348.6168 466.632 
Q 348.6168 470.196 352.1808 470.196 
z
" clip-path="url(#p62f52d22d2)" style="fill: #ffffff; stroke: #3f8a6e; stroke-width: 1.1; stroke-linejoin: miter"/>
   </g>
   <g id="patch_23">
    <path d="M 456.9624 470.196 
L 544.6368 470.196 
Q 548.2008 470.196 548.2008 466.632 
L 548.2008 408.1824 
Q 548.2008 404.6184 544.6368 404.6184 
L 456.9624 404.6184 
Q 453.3984 404.6184 453.3984 408.1824 
L 453.3984 466.632 
Q 453.3984 470.196 456.9624 470.196 
z
" clip-path="url(#p62f52d22d2)" style="fill: #ffffff; stroke: #3f8a6e; stroke-width: 1.1; stroke-linejoin: miter"/>
   </g>
   <g id="patch_24">
    <path d="M 561.744 470.196 
L 649.4184 470.196 
Q 652.9824 470.196 652.9824 466.632 
L 652.9824 408.1824 
Q 652.9824 404.6184 649.4184 404.6184 
L 561.744 404.6184 
Q 558.18 404.6184 558.18 408.1824 
L 558.18 466.632 
Q 558.18 470.196 561.744 470.196 
z
" clip-path="url(#p62f52d22d2)" style="fill: #ffffff; stroke: #3f8a6e; stroke-width: 1.1; stroke-linejoin: miter"/>
   </g>
   <g id="patch_25">
    <path d="M 666.5256 470.196 
L 754.2 470.196 
Q 757.764 470.196 757.764 466.632 
L 757.764 408.1824 
Q 757.764 404.6184 754.2 404.6184 
L 666.5256 404.6184 
Q 662.9616 404.6184 662.9616 408.1824 
L 662.9616 466.632 
Q 662.9616 470.196 666.5256 470.196 
z
" clip-path="url(#p62f52d22d2)" style="fill: #ffffff; stroke: #3f8a6e; stroke-width: 1.1; stroke-linejoin: miter"/>
   </g>
   <g id="patch_26">
    <path d="M 247.3992 632.0016 
L 335.0736 632.0016 
Q 338.6376 632.0016 338.6376 628.4376 
L 338.6376 569.988 
Q 338.6376 566.424 335.0736 566.424 
L 247.3992 566.424 
Q 243.8352 566.424 243.8352 569.988 
L 243.8352 628.4376 
Q 243.8352 632.0016 247.3992 632.0016 
z
" clip-path="url(#p62f52d22d2)" style="fill: #ffffff; stroke: #6e5c8a; stroke-width: 1.1; stroke-linejoin: miter"/>
   </g>
   <g id="patch_27">
    <path d="M 352.1808 632.0016 
L 439.8552 632.0016 
Q 443.4192 632.0016 443.4192 628.4376 
L 443.4192 569.988 
Q 443.4192 566.424 439.8552 566.424 
L 352.1808 566.424 
Q 348.6168 566.424 348.6168 569.988 
L 348.6168 628.4376 
Q 348.6168 632.0016 352.1808 632.0016 
z
" clip-path="url(#p62f52d22d2)" style="fill: #ffffff; stroke: #6e5c8a; stroke-width: 1.1; stroke-linejoin: miter"/>
   </g>
   <g id="patch_28">
    <path d="M 456.9624 632.0016 
L 544.6368 632.0016 
Q 548.2008 632.0016 548.2008 628.4376 
L 548.2008 569.988 
Q 548.2008 566.424 544.6368 566.424 
L 456.9624 566.424 
Q 453.3984 566.424 453.3984 569.988 
L 453.3984 628.4376 
Q 453.3984 632.0016 456.9624 632.0016 
z
" clip-path="url(#p62f52d22d2)" style="fill: #ffffff; stroke: #6e5c8a; stroke-width: 1.1; stroke-linejoin: miter"/>
   </g>
   <g id="patch_29">
    <path d="M 561.744 632.0016 
L 649.4184 632.0016 
Q 652.9824 632.0016 652.9824 628.4376 
L 652.9824 569.988 
Q 652.9824 566.424 649.4184 566.424 
L 561.744 566.424 
Q 558.18 566.424 558.18 569.988 
L 558.18 628.4376 
Q 558.18 632.0016 561.744 632.0016 
z
" clip-path="url(#p62f52d22d2)" style="fill: #ffffff; stroke: #6e5c8a; stroke-width: 1.1; stroke-linejoin: miter"/>
   </g>
   <g id="patch_30">
    <path d="M 666.5256 632.0016 
L 754.2 632.0016 
Q 757.764 632.0016 757.764 628.4376 
L 757.764 569.988 
Q 757.764 566.424 754.2 566.424 
L 666.5256 566.424 
Q 662.9616 566.424 662.9616 569.988 
L 662.9616 628.4376 
Q 662.9616 632.0016 666.5256 632.0016 
z
" clip-path="url(#p62f52d22d2)" style="fill: #ffffff; stroke: #6e5c8a; stroke-width: 1.1; stroke-linejoin: miter"/>
   </g>
   <g id="patch_31">
    <path d="M 121.59 78.8688 
C 127.261103 78.8688 132.700696 76.615647 136.710771 72.605571 
C 140.720847 68.595496 142.974 63.155903 142.974 57.4848 
C 142.974 51.813697 140.720847 46.374104 136.710771 42.364029 
C 132.700696 38.353953 127.261103 36.1008 121.59 36.1008 
C 115.918897 36.1008 110.479304 38.353953 106.469229 42.364029 
C 102.459153 46.374104 100.206 51.813697 100.206 57.4848 
C 100.206 63.155903 102.459153 68.595496 106.469229 72.605571 
C 110.479304 76.615647 115.918897 78.8688 121.59 78.8688 
z
" clip-path="url(#p62f52d22d2)" style="fill: #ffffff"/>
   </g>
   <g id="text_14">
    <text style="font-weight: 700; font-size: 13.5px; font-family: 'DejaVu Sans'; text-anchor: middle; fill: #ffffff" x="121.59" y="101.126756" transform="rotate(-0 121.59 101.126756)">LAYER 1</text>
   </g>
   <g id="text_15">
    <text style="font-size: 9.4px; font-family: 'DejaVu Sans'; fill: #ffffff" transform="translate(83.536891 127.699804)">User &amp; Assistive</text>
    <text style="font-size: 9.4px; font-family: 'DejaVu Sans'; fill: #ffffff" transform="translate(80.663281 137.868621)">Technology Layer</text>
   </g>
   <g id="text_16">
    <text style="font-size: 7.7px; font-family: 'DejaVu Sans'; fill: #20242a" transform="translate(261.146244 107.766467)">Screen Readers</text>
    <text style="font-size: 7.7px; font-family: 'DejaVu Sans'; fill: #20242a" transform="translate(265.277775 115.920719)">(NVDA, JAWS,</text>
    <text style="font-size: 7.7px; font-family: 'DejaVu Sans'; fill: #20242a" transform="translate(270.22683 124.074971)">VoiceOver)</text>
   </g>
   <g id="text_17">
    <text style="font-size: 7.7px; font-family: 'DejaVu Sans'; fill: #20242a" transform="translate(368.314242 111.843593)">Keyboard-only</text>
    <text style="font-size: 7.7px; font-family: 'DejaVu Sans'; fill: #20242a" transform="translate(375.252063 119.997845)">Navigation</text>
   </g>
   <g id="text_18">
    <text style="font-size: 7.7px; font-family: 'DejaVu Sans'; fill: #20242a" transform="translate(471.188889 111.843593)">Voice Control &amp;</text>
    <text style="font-size: 7.7px; font-family: 'DejaVu Sans'; fill: #20242a" transform="translate(467.536202 119.997845)">Voice Commands</text>
   </g>
   <g id="text_19">
    <text style="font-size: 7.7px; font-family: 'DejaVu Sans'; fill: #20242a" transform="translate(579.058309 111.843593)">High Contrast</text>
    <text style="font-size: 7.7px; font-family: 'DejaVu Sans'; fill: #20242a" transform="translate(576.536559 119.997845)">&amp; Zoom Modes</text>
   </g>
   <g id="text_20">
    <text style="font-size: 7.7px; font-family: 'DejaVu Sans'; fill: #20242a" transform="translate(680.878417 111.843593)">Plain Language</text>
    <text style="font-size: 7.7px; font-family: 'DejaVu Sans'; fill: #20242a" transform="translate(695.142667 119.997845)">Support</text>
   </g>
   <g id="patch_32">
    <path d="M 121.59 240.6744 
C 127.261103 240.6744 132.700696 238.421247 136.710771 234.411171 
C 140.720847 230.401096 142.974 224.961503 142.974 219.2904 
C 142.974 213.619297 140.720847 208.179704 136.710771 204.169629 
C 132.700696 200.159553 127.261103 197.9064 121.59 197.9064 
C 115.918897 197.9064 110.479304 200.159553 106.469229 204.169629 
C 102.459153 208.179704 100.206 213.619297 100.206 219.2904 
C 100.206 224.961503 102.459153 230.401096 106.469229 234.411171 
C 110.479304 238.421247 115.918897 240.6744 121.59 240.6744 
z
" clip-path="url(#p62f52d22d2)" style="fill: #ffffff"/>
   </g>
   <g id="text_21">
    <text style="font-weight: 700; font-size: 13.5px; font-family: 'DejaVu Sans'; text-anchor: middle; fill: #ffffff" x="121.59" y="262.932356" transform="rotate(-0 121.59 262.932356)">LAYER 2</text>
   </g>
   <g id="text_22">
    <text style="font-size: 9.4px; font-family: 'DejaVu Sans'; fill: #ffffff" transform="translate(79.845188 289.505404)">HCI Abstraction &amp;</text>
    <text style="font-size: 9.4px; font-family: 'DejaVu Sans'; fill: #ffffff" transform="translate(77.476828 299.674221)">Presentation Layer</text>
   </g>
   <g id="text_23">
    <text style="font-size: 7.7px; font-family: 'DejaVu Sans'; fill: #20242a" transform="translate(264.568533 273.649193)">Biometric Key</text>
    <text style="font-size: 7.7px; font-family: 'DejaVu Sans'; fill: #20242a" transform="translate(258.226861 281.803445)">Binding Interface</text>
   </g>
   <g id="text_24">
    <text style="font-size: 7.7px; font-family: 'DejaVu Sans'; fill: #20242a" transform="translate(372.764 273.649193)">Time-locked</text>
    <text style="font-size: 7.7px; font-family: 'DejaVu Sans'; fill: #20242a" transform="translate(357.623273 281.803445)">Confirmation Dialog</text>
   </g>
   <g id="text_25">
    <text style="font-size: 7.7px; font-family: 'DejaVu Sans'; fill: #20242a" transform="translate(471.149788 273.649193)">Plain-Language</text>
    <text style="font-size: 7.7px; font-family: 'DejaVu Sans'; fill: #20242a" transform="translate(459.2196 281.803445)">Transaction Feedback</text>
   </g>
   <g id="text_26">
    <text style="font-size: 7.7px; font-family: 'DejaVu Sans'; fill: #20242a" transform="translate(571.007598 273.649193)">ARIA Live Regions</text>
    <text style="font-size: 7.7px; font-family: 'DejaVu Sans'; fill: #20242a" transform="translate(563.776817 281.803445)">&amp; Focus Management</text>
   </g>
   <g id="text_27">
    <text style="font-size: 7.7px; font-family: 'DejaVu Sans'; fill: #20242a" transform="translate(688.145292 269.572067)">Adaptive UI</text>
    <text style="font-size: 7.7px; font-family: 'DejaVu Sans'; fill: #20242a" transform="translate(680.656441 277.726319)">(Context-aware</text>
    <text style="font-size: 7.7px; font-family: 'DejaVu Sans'; fill: #20242a" transform="translate(684.683902 285.880571)">Presentation)</text>
   </g>
   <g id="patch_33">
    <path d="M 121.59 402.48 
C 127.261103 402.48 132.700696 400.226847 136.710771 396.216771 
C 140.720847 392.206696 142.974 386.767103 142.974 381.096 
C 142.974 375.424897 140.720847 369.985304 136.710771 365.975229 
C 132.700696 361.965153 127.261103 359.712 121.59 359.712 
C 115.918897 359.712 110.479304 361.965153 106.469229 365.975229 
C 102.459153 369.985304 100.206 375.424897 100.206 381.096 
C 100.206 386.767103 102.459153 392.206696 106.469229 396.216771 
C 110.479304 400.226847 115.918897 402.48 121.59 402.48 
z
" clip-path="url(#p62f52d22d2)" style="fill: #ffffff"/>
   </g>
   <g id="text_28">
    <text style="font-weight: 700; font-size: 13.5px; font-family: 'DejaVu Sans'; text-anchor: middle; fill: #ffffff" x="121.59" y="424.737956" transform="rotate(-0 121.59 424.737956)">LAYER 3</text>
   </g>
   <g id="text_29">
    <text style="font-size: 9.4px; font-family: 'DejaVu Sans'; fill: #ffffff" transform="translate(80.502453 451.311004)">Smart Contract &amp;</text>
    <text style="font-size: 9.4px; font-family: 'DejaVu Sans'; fill: #ffffff" transform="translate(73.913641 461.479821)">Consent Logic Layer</text>
   </g>
   <g id="text_30">
    <text style="font-size: 7.7px; font-family: 'DejaVu Sans'; fill: #20242a" transform="translate(267.18172 431.377667)">GrantAccess</text>
    <text style="font-size: 7.7px; font-family: 'DejaVu Sans'; fill: #20242a" transform="translate(264.158869 439.531919)">(Permissioned</text>
    <text style="font-size: 7.7px; font-family: 'DejaVu Sans'; fill: #20242a" transform="translate(276.554064 447.686171)">Access)</text>
   </g>
   <g id="text_31">
    <text style="font-size: 7.7px; font-family: 'DejaVu Sans'; fill: #20242a" transform="translate(368.873695 435.454793)">RevokeAccess</text>
    <text style="font-size: 7.7px; font-family: 'DejaVu Sans'; fill: #20242a" transform="translate(357.253914 443.609045)">(Access Revocation)</text>
   </g>
   <g id="text_32">
    <text style="font-size: 7.7px; font-family: 'DejaVu Sans'; fill: #20242a" transform="translate(480.994959 435.454793)">ConfirmTx</text>
    <text style="font-size: 7.7px; font-family: 'DejaVu Sans'; fill: #20242a" transform="translate(461.640889 443.609045)">(Two-Stage Commit)</text>
   </g>
   <g id="text_33">
    <text style="font-size: 7.7px; font-family: 'DejaVu Sans'; fill: #20242a" transform="translate(588.606911 431.377667)">AuditLog</text>
    <text style="font-size: 7.7px; font-family: 'DejaVu Sans'; fill: #20242a" transform="translate(583.251802 439.531919)">(Immutable</text>
    <text style="font-size: 7.7px; font-family: 'DejaVu Sans'; fill: #20242a" transform="translate(584.894067 447.686171)">Audit Trail)</text>
   </g>
   <g id="text_34">
    <text style="font-size: 7.7px; font-family: 'DejaVu Sans'; fill: #20242a" transform="translate(683.509652 431.377667)">GDPR Erasure</text>
    <text style="font-size: 7.7px; font-family: 'DejaVu Sans'; fill: #20242a" transform="translate(691.516448 439.531919)">(Off-chain</text>
    <text style="font-size: 7.7px; font-family: 'DejaVu Sans'; fill: #20242a" transform="translate(677.982495 447.686171)">Pointer Deletion)</text>
   </g>
   <g id="patch_34">
    <path d="M 121.59 564.2856 
C 127.261103 564.2856 132.700696 562.032447 136.710771 558.022371 
C 140.720847 554.012296 142.974 548.572703 142.974 542.9016 
C 142.974 537.230497 140.720847 531.790904 136.710771 527.780829 
C 132.700696 523.770753 127.261103 521.5176 121.59 521.5176 
C 115.918897 521.5176 110.479304 523.770753 106.469229 527.780829 
C 102.459153 531.790904 100.206 537.230497 100.206 542.9016 
C 100.206 548.572703 102.459153 554.012296 106.469229 558.022371 
C 110.479304 562.032447 115.918897 564.2856 121.59 564.2856 
z
" clip-path="url(#p62f52d22d2)" style="fill: #ffffff"/>
   </g>
   <g id="text_35">
    <text style="font-weight: 700; font-size: 13.5px; font-family: 'DejaVu Sans'; text-anchor: middle; fill: #ffffff" x="121.59" y="586.543556" transform="rotate(-0 121.59 586.543556)">LAYER 4</text>
   </g>
   <g id="text_36">
    <text style="font-size: 9.4px; font-family: 'DejaVu Sans'; fill: #ffffff" transform="translate(90.991531 613.116604)">Blockchain &amp;</text>
    <text style="font-size: 9.4px; font-family: 'DejaVu Sans'; fill: #ffffff" transform="translate(65.933922 623.285421)">Off-chain Storage Layer</text>
   </g>
   <g id="text_37">
    <text style="font-size: 7.7px; font-family: 'DejaVu Sans'; fill: #20242a" transform="translate(269.039345 593.183267)">Consortium</text>
    <text style="font-size: 7.7px; font-family: 'DejaVu Sans'; fill: #20242a" transform="translate(270.397673 601.337519)">Blockchain</text>
    <text style="font-size: 7.7px; font-family: 'DejaVu Sans'; fill: #20242a" transform="translate(264.383853 609.491771)">(Hyperledger)</text>
   </g>
   <g id="text_38">
    <text style="font-size: 7.7px; font-family: 'DejaVu Sans'; fill: #20242a" transform="translate(367.80893 597.260393)">On-chain Hash</text>
    <text style="font-size: 7.7px; font-family: 'DejaVu Sans'; fill: #20242a" transform="translate(374.385813 605.414645)">Verification</text>
   </g>
   <g id="text_39">
    <text style="font-size: 7.7px; font-family: 'DejaVu Sans'; fill: #20242a" transform="translate(471.66292 597.260393)">IPFS / Off-chain</text>
    <text style="font-size: 7.7px; font-family: 'DejaVu Sans'; fill: #20242a" transform="translate(464.894139 605.414645)">Encrypted Storage</text>
   </g>
   <g id="text_40">
    <text style="font-size: 7.7px; font-family: 'DejaVu Sans'; fill: #20242a" transform="translate(582.170192 597.260393)">Audit Trail &amp;</text>
    <text style="font-size: 7.7px; font-family: 'DejaVu Sans'; fill: #20242a" transform="translate(569.789434 605.414645)">Access Log Ledger</text>
   </g>
   <g id="text_41">
    <text style="font-size: 7.7px; font-family: 'DejaVu Sans'; fill: #20242a" transform="translate(689.535503 597.260393)">Immutable</text>
    <text style="font-size: 7.7px; font-family: 'DejaVu Sans'; fill: #20242a" transform="translate(676.545363 605.414645)">On-chain Records</text>
   </g>
   <g id="patch_35">
    <path d="M 970.1784 152.6436 
C 971.029065 152.6436 971.845004 152.305627 972.446516 151.704116 
C 973.048027 151.102604 973.386 150.286665 973.386 149.436 
C 973.386 148.585335 973.048027 147.769396 972.446516 147.167884 
C 971.845004 146.566373 971.029065 146.2284 970.1784 146.2284 
C 969.327735 146.2284 968.511796 146.566373 967.910284 147.167884 
C 967.308773 147.769396 966.9708 148.585335 966.9708 149.436 
C 966.9708 150.286665 967.308773 151.102604 967.910284 151.704116 
C 968.511796 152.305627 969.327735 152.6436 970.1784 152.6436 
z
" clip-path="url(#p62f52d22d2)" style="fill: #2b3e52; stroke: #2b3e52; stroke-linejoin: miter"/>
   </g>
   <g id="text_42">
    <text style="font-weight: 700; font-size: 8.6px; font-family: 'DejaVu Sans'; fill: #20242a" transform="translate(981.5832 147.090182)">End-to-End Security &amp;</text>
    <text style="font-weight: 700; font-size: 8.6px; font-family: 'DejaVu Sans'; fill: #20242a" transform="translate(981.5832 156.460755)">Privacy</text>
   </g>
   <g id="patch_36">
    <path d="M 970.1784 269.5428 
C 971.029065 269.5428 971.845004 269.204827 972.446516 268.603316 
C 973.048027 268.001804 973.386 267.185865 973.386 266.3352 
C 973.386 265.484535 973.048027 264.668596 972.446516 264.067084 
C 971.845004 263.465573 971.029065 263.1276 970.1784 263.1276 
C 969.327735 263.1276 968.511796 263.465573 967.910284 264.067084 
C 967.308773 264.668596 966.9708 265.484535 966.9708 266.3352 
C 966.9708 267.185865 967.308773 268.001804 967.910284 268.603316 
C 968.511796 269.204827 969.327735 269.5428 970.1784 269.5428 
z
" clip-path="url(#p62f52d22d2)" style="fill: #2b3e52; stroke: #2b3e52; stroke-linejoin: miter"/>
   </g>
   <g id="text_43">
    <text style="font-weight: 700; font-size: 8.6px; font-family: 'DejaVu Sans'; fill: #20242a" transform="translate(981.5832 264.05657)">Role-Based Access</text>
    <text style="font-weight: 700; font-size: 8.6px; font-family: 'DejaVu Sans'; fill: #20242a" transform="translate(981.5832 273.359955)">Control</text>
   </g>
   <g id="patch_37">
    <path d="M 970.1784 386.442 
C 971.029065 386.442 971.845004 386.104027 972.446516 385.502516 
C 973.048027 384.901004 973.386 384.085065 973.386 383.2344 
C 973.386 382.383735 973.048027 381.567796 972.446516 380.966284 
C 971.845004 380.364773 971.029065 380.0268 970.1784 380.0268 
C 969.327735 380.0268 968.511796 380.364773 967.910284 380.966284 
C 967.308773 381.567796 966.9708 382.383735 966.9708 383.2344 
C 966.9708 384.085065 967.308773 384.901004 967.910284 385.502516 
C 968.511796 386.104027 969.327735 386.442 970.1784 386.442 
z
" clip-path="url(#p62f52d22d2)" style="fill: #2b3e52; stroke: #2b3e52; stroke-linejoin: miter"/>
   </g>
   <g id="text_44">
    <text style="font-weight: 700; font-size: 8.6px; font-family: 'DejaVu Sans'; fill: #20242a" transform="translate(981.5832 380.922176)">Policies, Compliance &amp;</text>
    <text style="font-weight: 700; font-size: 8.6px; font-family: 'DejaVu Sans'; fill: #20242a" transform="translate(981.5832 390.225562)">Regulatory</text>
   </g>
   <g id="patch_38">
    <path d="M 970.1784 503.3412 
C 971.029065 503.3412 971.845004 503.003227 972.446516 502.401716 
C 973.048027 501.800204 973.386 500.984265 973.386 500.1336 
C 973.386 499.282935 973.048027 498.466996 972.446516 497.865484 
C 971.845004 497.263973 971.029065 496.926 970.1784 496.926 
C 969.327735 496.926 968.511796 497.263973 967.910284 497.865484 
C 967.308773 498.466996 966.9708 499.282935 966.9708 500.1336 
C 966.9708 500.984265 967.308773 501.800204 967.910284 502.401716 
C 968.511796 503.003227 969.327735 503.3412 970.1784 503.3412 
z
" clip-path="url(#p62f52d22d2)" style="fill: #2b3e52; stroke: #2b3e52; stroke-linejoin: miter"/>
   </g>
   <g id="text_45">
    <text style="font-weight: 700; font-size: 8.6px; font-family: 'DejaVu Sans'; fill: #20242a" transform="translate(981.5832 497.821376)">Monitoring, Logging &amp;</text>
    <text style="font-weight: 700; font-size: 8.6px; font-family: 'DejaVu Sans'; fill: #20242a" transform="translate(981.5832 507.191949)">Incident Response</text>
   </g>
   <g id="patch_39">
    <path d="M 970.1784 620.2404 
C 971.029065 620.2404 971.845004 619.902427 972.446516 619.300916 
C 973.048027 618.699404 973.386 617.883465 973.386 617.0328 
C 973.386 616.182135 973.048027 615.366196 972.446516 614.764684 
C 971.845004 614.163173 971.029065 613.8252 970.1784 613.8252 
C 969.327735 613.8252 968.511796 614.163173 967.910284 614.764684 
C 967.308773 615.366196 966.9708 616.182135 966.9708 617.0328 
C 966.9708 617.883465 967.308773 618.699404 967.910284 619.300916 
C 968.511796 619.902427 969.327735 620.2404 970.1784 620.2404 
z
" clip-path="url(#p62f52d22d2)" style="fill: #2b3e52; stroke: #2b3e52; stroke-linejoin: miter"/>
   </g>
   <g id="text_46">
    <text style="font-weight: 700; font-size: 8.6px; font-family: 'DejaVu Sans'; fill: #20242a" transform="translate(981.5832 614.75417)">Inclusive Governance &amp;</text>
    <text style="font-weight: 700; font-size: 8.6px; font-family: 'DejaVu Sans'; fill: #20242a" transform="translate(981.5832 624.057555)">Participation</text>
   </g>
   <g id="patch_40">
    <path d="M 500.7996 184.265532 
Q 500.7996 171.5328 500.7996 158.800068 
" style="fill: none; stroke: #2b3e52; stroke-width: 2; stroke-linecap: round"/>
    <path d="M 503.9996 177.865532 
L 500.7996 184.265532 
L 497.5996 177.865532 
z
" style="fill: #2b3e52; stroke: #2b3e52; stroke-width: 2; stroke-linecap: round"/>
    <path d="M 497.5996 165.200068 
L 500.7996 158.800068 
L 503.9996 165.200068 
z
" style="fill: #2b3e52; stroke: #2b3e52; stroke-width: 2; stroke-linecap: round"/>
   </g>
   <g id="patch_41">
    <path d="M 500.7996 346.071132 
Q 500.7996 333.3384 500.7996 320.605668 
" style="fill: none; stroke: #2b3e52; stroke-width: 2; stroke-linecap: round"/>
    <path d="M 503.9996 339.671132 
L 500.7996 346.071132 
L 497.5996 339.671132 
z
" style="fill: #2b3e52; stroke: #2b3e52; stroke-width: 2; stroke-linecap: round"/>
    <path d="M 497.5996 327.005668 
L 500.7996 320.605668 
L 503.9996 327.005668 
z
" style="fill: #2b3e52; stroke: #2b3e52; stroke-width: 2; stroke-linecap: round"/>
   </g>
   <g id="patch_42">
    <path d="M 500.7996 507.876732 
Q 500.7996 495.144 500.7996 482.411268 
" style="fill: none; stroke: #2b3e52; stroke-width: 2; stroke-linecap: round"/>
    <path d="M 503.9996 501.476732 
L 500.7996 507.876732 
L 497.5996 501.476732 
z
" style="fill: #2b3e52; stroke: #2b3e52; stroke-width: 2; stroke-linecap: round"/>
    <path d="M 497.5996 488.811268 
L 500.7996 482.411268 
L 503.9996 488.811268 
z
" style="fill: #2b3e52; stroke: #2b3e52; stroke-width: 2; stroke-linecap: round"/>
   </g>
   <g id="patch_43">
    <path d="M 121.59 48.275424 
C 122.682633 48.275424 123.730661 47.841316 124.503269 47.068709 
C 125.275876 46.296101 125.709984 45.248073 125.709984 44.15544 
C 125.709984 43.062807 125.275876 42.014779 124.503269 41.242171 
C 123.730661 40.469564 122.682633 40.035456 121.59 40.035456 
C 120.497367 40.035456 119.449339 40.469564 118.676731 41.242171 
C 117.904124 42.014779 117.470016 43.062807 117.470016 44.15544 
C 117.470016 45.248073 117.904124 46.296101 118.676731 47.068709 
C 119.449339 47.841316 120.497367 48.275424 121.59 48.275424 
L 121.59 48.275424 
z
" clip-path="url(#p62f52d22d2)" style="fill: none; stroke: #3e6e93; stroke-width: 2.2; stroke-linejoin: miter"/>
   </g>
   <g id="line2d_1">
    <path d="M 121.59 49.244832 
L 121.59 60.393024 
" clip-path="url(#p62f52d22d2)" style="fill: none; stroke: #3e6e93; stroke-width: 2.2; stroke-linecap: round"/>
   </g>
   <g id="line2d_2">
    <path d="M 110.68416 54.576576 
L 132.49584 54.576576 
" clip-path="url(#p62f52d22d2)" style="fill: none; stroke: #3e6e93; stroke-width: 2.2; stroke-linecap: round"/>
   </g>
   <g id="line2d_3">
    <path d="M 121.59 60.393024 
L 114.31944 72.02592 
" clip-path="url(#p62f52d22d2)" style="fill: none; stroke: #3e6e93; stroke-width: 2.2; stroke-linecap: round"/>
   </g>
   <g id="line2d_4">
    <path d="M 121.59 60.393024 
L 128.86056 72.02592 
" clip-path="url(#p62f52d22d2)" style="fill: none; stroke: #3e6e93; stroke-width: 2.2; stroke-linecap: round"/>
   </g>
   <g id="patch_44">
    <path d="M 110.840976 231.408 
L 132.339024 231.408 
Q 136.615824 231.408 136.615824 227.1312 
L 136.615824 211.4496 
Q 136.615824 207.1728 132.339024 207.1728 
L 110.840976 207.1728 
Q 106.564176 207.1728 106.564176 211.4496 
L 106.564176 227.1312 
Q 106.564176 231.408 110.840976 231.408 
L 110.840976 231.408 
z
" clip-path="url(#p62f52d22d2)" style="fill: none; stroke: #a9772f; stroke-width: 2.2; stroke-linejoin: miter"/>
   </g>
   <g id="line2d_5">
    <path d="M 106.564176 214.44336 
L 136.615824 214.44336 
" clip-path="url(#p62f52d22d2)" style="fill: none; stroke: #a9772f; stroke-width: 1.8; stroke-linecap: round"/>
   </g>
   <g id="patch_45">
    <path d="M 109.4724 211.535136 
C 109.665218 211.535136 109.850164 211.458529 109.986506 211.322186 
C 110.122849 211.185844 110.199456 211.000898 110.199456 210.80808 
C 110.199456 210.615262 110.122849 210.430316 109.986506 210.293974 
C 109.850164 210.157631 109.665218 210.081024 109.4724 210.081024 
C 109.279582 210.081024 109.094636 210.157631 108.958294 210.293974 
C 108.821951 210.430316 108.745344 210.615262 108.745344 210.80808 
C 108.745344 211.000898 108.821951 211.185844 108.958294 211.322186 
C 109.094636 211.458529 109.279582 211.535136 109.4724 211.535136 
z
" clip-path="url(#p62f52d22d2)" style="fill: #a9772f; stroke: #a9772f; stroke-linejoin: miter"/>
   </g>
   <g id="patch_46">
    <path d="M 112.865328 211.535136 
C 113.058146 211.535136 113.243092 211.458529 113.379434 211.322186 
C 113.515777 211.185844 113.592384 211.000898 113.592384 210.80808 
C 113.592384 210.615262 113.515777 210.430316 113.379434 210.293974 
C 113.243092 210.157631 113.058146 210.081024 112.865328 210.081024 
C 112.67251 210.081024 112.487564 210.157631 112.351222 210.293974 
C 112.214879 210.430316 112.138272 210.615262 112.138272 210.80808 
C 112.138272 211.000898 112.214879 211.185844 112.351222 211.322186 
C 112.487564 211.458529 112.67251 211.535136 112.865328 211.535136 
z
" clip-path="url(#p62f52d22d2)" style="fill: #a9772f; stroke: #a9772f; stroke-linejoin: miter"/>
   </g>
   <g id="patch_47">
    <path d="M 116.258256 211.535136 
C 116.451074 211.535136 116.63602 211.458529 116.772362 211.322186 
C 116.908705 211.185844 116.985312 211.000898 116.985312 210.80808 
C 116.985312 210.615262 116.908705 210.430316 116.772362 210.293974 
C 116.63602 210.157631 116.451074 210.081024 116.258256 210.081024 
C 116.065438 210.081024 115.880492 210.157631 115.74415 210.293974 
C 115.607807 210.430316 115.5312 210.615262 115.5312 210.80808 
C 115.5312 211.000898 115.607807 211.185844 115.74415 211.322186 
C 115.880492 211.458529 116.065438 211.535136 116.258256 211.535136 
z
" clip-path="url(#p62f52d22d2)" style="fill: #a9772f; stroke: #a9772f; stroke-linejoin: miter"/>
   </g>
   <g id="line2d_6">
    <path d="M 111.411216 220.50216 
L 128.86056 220.50216 
" clip-path="url(#p62f52d22d2)" style="fill: none; stroke: #a9772f; stroke-width: 1.6; stroke-linecap: round"/>
   </g>
   <g id="line2d_7">
    <path d="M 111.411216 226.076256 
L 124.498224 226.076256 
" clip-path="url(#p62f52d22d2)" style="fill: none; stroke: #a9772f; stroke-width: 1.6; stroke-linecap: round"/>
   </g>
   <g id="patch_48">
    <path d="M 111.411216 396.121824 
L 111.411216 366.070176 
L 126.921744 366.070176 
L 131.768784 370.917216 
L 131.768784 396.121824 
L 111.411216 396.121824 
z
" clip-path="url(#p62f52d22d2)" style="fill: none; stroke: #3f8a6e; stroke-width: 2.2; stroke-linejoin: miter"/>
   </g>
   <g id="line2d_8">
    <path d="M 126.921744 366.070176 
L 126.921744 370.917216 
L 131.768784 370.917216 
" clip-path="url(#p62f52d22d2)" style="fill: none; stroke: #3f8a6e; stroke-width: 1.6; stroke-linecap: round"/>
   </g>
   <g id="line2d_9">
    <path d="M 114.804144 373.340736 
L 128.375856 373.340736 
" clip-path="url(#p62f52d22d2)" style="fill: none; stroke: #3f8a6e; stroke-width: 1.5; stroke-linecap: round"/>
   </g>
   <g id="line2d_10">
    <path d="M 114.804144 377.703072 
L 128.375856 377.703072 
" clip-path="url(#p62f52d22d2)" style="fill: none; stroke: #3f8a6e; stroke-width: 1.5; stroke-linecap: round"/>
   </g>
   <g id="line2d_11">
    <path d="M 115.288848 386.427744 
L 119.651184 390.79008 
L 128.86056 380.611296 
" clip-path="url(#p62f52d22d2)" style="fill: none; stroke: #3f8a6e; stroke-width: 2.4; stroke-linecap: round"/>
   </g>
   <g id="patch_49">
    <path d="M 119.59416 537.569856 
L 123.58584 537.569856 
Q 126.43704 537.569856 126.43704 534.718656 
L 126.43704 530.726976 
Q 126.43704 527.875776 123.58584 527.875776 
L 119.59416 527.875776 
Q 116.74296 527.875776 116.74296 530.726976 
L 116.74296 534.718656 
Q 116.74296 537.569856 119.59416 537.569856 
L 119.59416 537.569856 
z
" clip-path="url(#p62f52d22d2)" style="fill: none; stroke: #6e5c8a; stroke-width: 2.2; stroke-linejoin: miter"/>
   </g>
   <g id="patch_50">
    <path d="M 109.415376 555.503904 
L 113.407056 555.503904 
Q 116.258256 555.503904 116.258256 552.652704 
L 116.258256 548.661024 
Q 116.258256 545.809824 113.407056 545.809824 
L 109.415376 545.809824 
Q 106.564176 545.809824 106.564176 548.661024 
L 106.564176 552.652704 
Q 106.564176 555.503904 109.415376 555.503904 
L 109.415376 555.503904 
z
" clip-path="url(#p62f52d22d2)" style="fill: none; stroke: #6e5c8a; stroke-width: 2.2; stroke-linejoin: miter"/>
   </g>
   <g id="patch_51">
    <path d="M 129.772944 555.503904 
L 133.764624 555.503904 
Q 136.615824 555.503904 136.615824 552.652704 
L 136.615824 548.661024 
Q 136.615824 545.809824 133.764624 545.809824 
L 129.772944 545.809824 
Q 126.921744 545.809824 126.921744 548.661024 
L 126.921744 552.652704 
Q 126.921744 555.503904 129.772944 555.503904 
L 129.772944 555.503904 
z
" clip-path="url(#p62f52d22d2)" style="fill: none; stroke: #6e5c8a; stroke-width: 2.2; stroke-linejoin: miter"/>
   </g>
   <g id="line2d_12">
    <path d="M 117.95472 536.115744 
L 114.31944 546.294528 
" clip-path="url(#p62f52d22d2)" style="fill: none; stroke: #6e5c8a; stroke-width: 1.7; stroke-linecap: round"/>
   </g>
   <g id="line2d_13">
    <path d="M 125.22528 536.115744 
L 128.86056 546.294528 
" clip-path="url(#p62f52d22d2)" style="fill: none; stroke: #6e5c8a; stroke-width: 1.7; stroke-linecap: round"/>
   </g>
   <g id="line2d_14">
    <path d="M 116.258256 550.656864 
L 126.921744 550.656864 
" clip-path="url(#p62f52d22d2)" style="fill: none; stroke: #6e5c8a; stroke-width: 1.7; stroke-linecap: round"/>
   </g>
   <g id="patch_52">
    <path d="M 1037.538 42.344928 
L 1054.00368 51.326208 
L 1054.00368 69.288768 
L 1037.538 85.455072 
L 1021.07232 69.288768 
L 1021.07232 51.326208 
L 1037.538 42.344928 
z
" clip-path="url(#p62f52d22d2)" style="fill: none; stroke: #2b3e52; stroke-width: 2.4; stroke-linejoin: miter"/>
   </g>
   <g id="line2d_15">
    <path d="M 1029.754224 64.498752 
L 1035.741744 70.486272 
L 1047.118032 56.714976 
" clip-path="url(#p62f52d22d2)" style="fill: none; stroke: #2b3e52; stroke-width: 2.6; stroke-linecap: round"/>
   </g>
  </g>
 </g>
 <defs>
  <clipPath id="p62f52d22d2">
   <rect x="5.76" y="3.312" width="1140.48" height="655.776"/>
  </clipPath>
 </defs>
</svg>
