<?xml version="1.0" encoding="utf-8" standalone="no"?>
<!DOCTYPE svg PUBLIC "-//W3C//DTD SVG 1.1//EN"
  "http://www.w3.org/Graphics/SVG/1.1/DTD/svg11.dtd">
<svg xmlns:xlink="http://www.w3.org/1999/xlink" width="1008pt" height="633.6pt" viewBox="0 0 1008 633.6" xmlns="http://www.w3.org/2000/svg" version="1.1">
 <metadata>
  <rdf:RDF xmlns:dc="http://purl.org/dc/elements/1.1/" xmlns:cc="http://creativecommons.org/ns#" xmlns:rdf="http://www.w3.org/1999/02/22-rdf-syntax-ns#">
   <cc:Work>
    <dc:type rdf:resource="http://purl.org/dc/dcmitype/StillImage"/>
    <dc:date>2026-07-04T04:49:04.505688</dc:date>
    <dc:format>image/svg+xml</dc:format>
    <dc:creator>
     <cc:Agent>
      <dc:title>Matplotlib v3.10.8, https://matplotlib.org/</dc:title>
     </cc:Agent>
    </dc:creator>
   </cc:Work>
  </rdf:RDF>
 </metadata>
 <defs>
  <style type="text/css">*{stroke-linejoin: round; stroke-linecap: butt}</style>
 </defs>
 <g id="figure_1">
  <g id="patch_1">
   <path d="M 0 633.6 
L 1008 633.6 
L 1008 0 
L 0 0 
z
" style="fill: #ffffff"/>
  </g>
  <g id="patch_2">
   <path d="M 52.416 304.128 
L 481.824 304.128 
Q 493.92 304.128 493.92 296.5248 
L 493.92 77.2992 
Q 493.92 69.696 481.824 69.696 
L 52.416 69.696 
Q 40.32 69.696 40.32 77.2992 
L 40.32 296.5248 
Q 40.32 304.128 52.416 304.128 
z
" style="fill: #ffffff; stroke: #d5dae0; stroke-width: 1.1; stroke-linejoin: miter"/>
  </g>
  <g id="patch_3">
   <path d="M 539.28 304.128 
L 968.688 304.128 
Q 980.784 304.128 980.784 296.5248 
L 980.784 77.2992 
Q 980.784 69.696 968.688 69.696 
L 539.28 69.696 
Q 527.184 69.696 527.184 77.2992 
L 527.184 296.5248 
Q 527.184 304.128 539.28 304.128 
z
" style="fill: #ffffff; stroke: #d5dae0; stroke-width: 1.1; stroke-linejoin: miter"/>
  </g>
  <g id="patch_4">
   <path d="M 52.416 560.736 
L 481.824 560.736 
Q 493.92 560.736 493.92 553.1328 
L 493.92 333.9072 
Q 493.92 326.304 481.824 326.304 
L 52.416 326.304 
Q 40.32 326.304 40.32 333.9072 
L 40.32 553.1328 
Q 40.32 560.736 52.416 560.736 
z
" style="fill: #ffffff; stroke: #d5dae0; stroke-width: 1.1; stroke-linejoin: miter"/>
  </g>
  <g id="patch_5">
   <path d="M 539.28 560.736 
L 968.688 560.736 
Q 980.784 560.736 980.784 553.1328 
L 980.784 333.9072 
Q 980.784 326.304 968.688 326.304 
L 539.28 326.304 
Q 527.184 326.304 527.184 333.9072 
L 527.184 553.1328 
Q 527.184 560.736 539.28 560.736 
z
" style="fill: #ffffff; stroke: #d5dae0; stroke-width: 1.1; stroke-linejoin: miter"/>
  </g>
  <g id="axes_1">
   <g id="patch_6">
    <path d="M 87.85728 167.5872 
L 119.79072 167.5872 
L 119.79072 129.888 
L 87.85728 129.888 
z
" clip-path="url(#pc69fcfcf91)" style="fill: #5a9e56; stroke: #ffffff; stroke-width: 1.6; stroke-linejoin: miter"/>
   </g>
   <g id="patch_7">
    <path d="M 124.14528 167.5872 
L 156.07872 167.5872 
L 156.07872 129.888 
L 124.14528 129.888 
z
" clip-path="url(#pc69fcfcf91)" style="fill: #5a9e56; stroke: #ffffff; stroke-width: 1.6; stroke-linejoin: miter"/>
   </g>
   <g id="patch_8">
    <path d="M 160.43328 167.5872 
L 192.36672 167.5872 
L 192.36672 129.888 
L 160.43328 129.888 
z
" clip-path="url(#pc69fcfcf91)" style="fill: #a9ce6b; stroke: #ffffff; stroke-width: 1.6; stroke-linejoin: miter"/>
   </g>
   <g id="patch_9">
    <path d="M 196.72128 167.5872 
L 228.65472 167.5872 
L 228.65472 129.888 
L 196.72128 129.888 
z
" clip-path="url(#pc69fcfcf91)" style="fill: #a9ce6b; stroke: #ffffff; stroke-width: 1.6; stroke-linejoin: miter"/>
   </g>
   <g id="patch_10">
    <path d="M 233.00928 167.5872 
L 264.94272 167.5872 
L 264.94272 129.888 
L 233.00928 129.888 
z
" clip-path="url(#pc69fcfcf91)" style="fill: #5a9e56; stroke: #ffffff; stroke-width: 1.6; stroke-linejoin: miter"/>
   </g>
   <g id="patch_11">
    <path d="M 269.29728 167.5872 
L 301.23072 167.5872 
L 301.23072 129.888 
L 269.29728 129.888 
z
" clip-path="url(#pc69fcfcf91)" style="fill: #5a9e56; stroke: #ffffff; stroke-width: 1.6; stroke-linejoin: miter"/>
   </g>
   <g id="patch_12">
    <path d="M 305.58528 167.5872 
L 337.51872 167.5872 
L 337.51872 129.888 
L 305.58528 129.888 
z
" clip-path="url(#pc69fcfcf91)" style="fill: #a9ce6b; stroke: #ffffff; stroke-width: 1.6; stroke-linejoin: miter"/>
   </g>
   <g id="patch_13">
    <path d="M 341.87328 167.5872 
L 373.80672 167.5872 
L 373.80672 129.888 
L 341.87328 129.888 
z
" clip-path="url(#pc69fcfcf91)" style="fill: #a9ce6b; stroke: #ffffff; stroke-width: 1.6; stroke-linejoin: miter"/>
   </g>
   <g id="patch_14">
    <path d="M 378.16128 167.5872 
L 410.09472 167.5872 
L 410.09472 129.888 
L 378.16128 129.888 
z
" clip-path="url(#pc69fcfcf91)" style="fill: #a9ce6b; stroke: #ffffff; stroke-width: 1.6; stroke-linejoin: miter"/>
   </g>
   <g id="patch_15">
    <path d="M 414.44928 167.5872 
L 446.38272 167.5872 
L 446.38272 129.888 
L 414.44928 129.888 
z
" clip-path="url(#pc69fcfcf91)" style="fill: #a9ce6b; stroke: #ffffff; stroke-width: 1.6; stroke-linejoin: miter"/>
   </g>
   <g id="text_1">
    <text style="font-weight: 700; font-size: 8.6px; font-family: 'DejaVu Sans'; text-anchor: middle; fill: #ffffff" x="103.824" y="151.110663" transform="rotate(-0 103.824 151.110663)">0.0</text>
   </g>
   <g id="text_2">
    <text style="font-size: 7.4px; font-family: 'DejaVu Sans'; text-anchor: middle; fill: #4a515a" x="103.824" y="180.400338" transform="rotate(-0 103.824 180.400338)">H1</text>
   </g>
   <g id="text_3">
    <text style="font-weight: 700; font-size: 8.6px; font-family: 'DejaVu Sans'; text-anchor: middle; fill: #ffffff" x="140.112" y="151.110663" transform="rotate(-0 140.112 151.110663)">0.0</text>
   </g>
   <g id="text_4">
    <text style="font-size: 7.4px; font-family: 'DejaVu Sans'; text-anchor: middle; fill: #4a515a" x="140.112" y="180.400338" transform="rotate(-0 140.112 180.400338)">H2</text>
   </g>
   <g id="text_5">
    <text style="font-weight: 700; font-size: 8.6px; font-family: 'DejaVu Sans'; text-anchor: middle; fill: #ffffff" x="176.4" y="151.110663" transform="rotate(-0 176.4 151.110663)">0.6</text>
   </g>
   <g id="text_6">
    <text style="font-size: 7.4px; font-family: 'DejaVu Sans'; text-anchor: middle; fill: #4a515a" x="176.4" y="180.400338" transform="rotate(-0 176.4 180.400338)">H3</text>
   </g>
   <g id="text_7">
    <text style="font-weight: 700; font-size: 8.6px; font-family: 'DejaVu Sans'; text-anchor: middle; fill: #ffffff" x="212.688" y="151.110663" transform="rotate(-0 212.688 151.110663)">0.3</text>
   </g>
   <g id="text_8">
    <text style="font-size: 7.4px; font-family: 'DejaVu Sans'; text-anchor: middle; fill: #4a515a" x="212.688" y="180.400338" transform="rotate(-0 212.688 180.400338)">H4</text>
   </g>
   <g id="text_9">
    <text style="font-weight: 700; font-size: 8.6px; font-family: 'DejaVu Sans'; text-anchor: middle; fill: #ffffff" x="248.976" y="151.110663" transform="rotate(-0 248.976 151.110663)">0.0</text>
   </g>
   <g id="text_10">
    <text style="font-size: 7.4px; font-family: 'DejaVu Sans'; text-anchor: middle; fill: #4a515a" x="248.976" y="180.400338" transform="rotate(-0 248.976 180.400338)">H5</text>
   </g>
   <g id="text_11">
    <text style="font-weight: 700; font-size: 8.6px; font-family: 'DejaVu Sans'; text-anchor: middle; fill: #ffffff" x="285.264" y="151.110663" transform="rotate(-0 285.264 151.110663)">0.0</text>
   </g>
   <g id="text_12">
    <text style="font-size: 7.4px; font-family: 'DejaVu Sans'; text-anchor: middle; fill: #4a515a" x="285.264" y="180.400338" transform="rotate(-0 285.264 180.400338)">H6</text>
   </g>
   <g id="text_13">
    <text style="font-weight: 700; font-size: 8.6px; font-family: 'DejaVu Sans'; text-anchor: middle; fill: #ffffff" x="321.552" y="151.110663" transform="rotate(-0 321.552 151.110663)">0.7</text>
   </g>
   <g id="text_14">
    <text style="font-size: 7.4px; font-family: 'DejaVu Sans'; text-anchor: middle; fill: #4a515a" x="321.552" y="180.400338" transform="rotate(-0 321.552 180.400338)">H7</text>
   </g>
   <g id="text_15">
    <text style="font-weight: 700; font-size: 8.6px; font-family: 'DejaVu Sans'; text-anchor: middle; fill: #ffffff" x="357.84" y="151.110663" transform="rotate(-0 357.84 151.110663)">0.2</text>
   </g>
   <g id="text_16">
    <text style="font-size: 7.4px; font-family: 'DejaVu Sans'; text-anchor: middle; fill: #4a515a" x="357.84" y="180.400338" transform="rotate(-0 357.84 180.400338)">H8</text>
   </g>
   <g id="text_17">
    <text style="font-weight: 700; font-size: 8.6px; font-family: 'DejaVu Sans'; text-anchor: middle; fill: #20242a" x="394.128" y="151.110663" transform="rotate(-0 394.128 151.110663)">1.0</text>
   </g>
   <g id="text_18">
    <text style="font-size: 7.4px; font-family: 'DejaVu Sans'; text-anchor: middle; fill: #4a515a" x="394.128" y="180.400338" transform="rotate(-0 394.128 180.400338)">H9</text>
   </g>
   <g id="text_19">
    <text style="font-weight: 700; font-size: 8.6px; font-family: 'DejaVu Sans'; text-anchor: middle; fill: #ffffff" x="430.416" y="151.110663" transform="rotate(-0 430.416 151.110663)">0.2</text>
   </g>
   <g id="text_20">
    <text style="font-size: 7.4px; font-family: 'DejaVu Sans'; text-anchor: middle; fill: #4a515a" x="430.416" y="180.400338" transform="rotate(-0 430.416 180.400338)">H10</text>
   </g>
  </g>
  <g id="axes_2">
   <g id="patch_16">
    <path d="M 647.5824 137.808 
C 647.5824 133.315006 646.697378 128.865701 644.977984 124.714716 
C 643.25859 120.563731 640.738261 116.791792 637.561234 113.614766 
C 634.384208 110.437739 630.612269 107.91741 626.461284 106.198016 
C 622.310299 104.478622 617.860994 103.5936 613.368 103.5936 
C 608.875006 103.5936 604.425701 104.478622 600.274716 106.198016 
C 596.123731 107.91741 592.351792 110.437739 589.174766 113.614766 
C 585.997739 116.791792 583.47741 120.563731 581.758016 124.714716 
C 580.038622 128.865701 579.1536 133.315006 579.1536 137.808 
C 579.1536 142.300994 580.038622 146.750299 581.758016 150.901284 
C 583.47741 155.052269 585.997739 158.824208 589.174766 162.001234 
C 592.351792 165.178261 596.123731 167.69859 600.274716 169.417984 
C 604.425701 171.137378 608.875006 172.0224 613.368 172.0224 
C 617.860994 172.0224 622.310299 171.137378 626.461284 169.417984 
C 630.612269 167.69859 634.384208 165.178261 637.561234 162.001234 
C 640.738261 158.824208 643.25859 155.052269 644.977984 150.901284 
C 646.697378 146.750299 647.5824 142.300994 647.5824 137.808 
M 635.949504 137.808 
C 635.949504 140.773376 635.36539 143.709917 634.230589 146.449567 
C 633.095789 149.189218 631.432372 151.678697 629.335535 153.775535 
C 627.238697 155.872372 624.749218 157.535789 622.009567 158.670589 
C 619.269917 159.80539 616.333376 160.389504 613.368 160.389504 
C 610.402624 160.389504 607.466083 159.80539 604.726433 158.670589 
C 601.986782 157.535789 599.497303 155.872372 597.400465 153.775535 
C 595.303628 151.678697 593.640211 149.189218 592.505411 146.449567 
C 591.37061 143.709917 590.786496 140.773376 590.786496 137.808 
C 590.786496 134.842624 591.37061 131.906083 592.505411 129.166433 
C 593.640211 126.426782 595.303628 123.937303 597.400465 121.840465 
C 599.497303 119.743628 601.986782 118.080211 604.726433 116.945411 
C 607.466083 115.81061 610.402624 115.226496 613.368 115.226496 
C 616.333376 115.226496 619.269917 115.81061 622.009567 116.945411 
C 624.749218 118.080211 627.238697 119.743628 629.335535 121.840465 
C 631.432372 123.937303 633.095789 126.426782 634.230589 129.166433 
C 635.36539 131.906083 635.949504 134.842624 635.949504 137.808 
z
" style="fill: #2e4a9e"/>
   </g>
   <g id="matplotlib.axis_1"/>
   <g id="matplotlib.axis_2"/>
   <g id="text_21">
    <text style="font-weight: 700; font-size: 12px; font-family: 'DejaVu Sans'; text-anchor: middle; fill: #2e4a9e" x="613.368" y="141.11925" transform="rotate(-0 613.368 141.11925)">100%</text>
   </g>
  </g>
  <g id="axes_3">
   <g id="patch_17">
    <path d="M 73.584 456.192 
L 464.688 456.192 
L 464.688 380.16 
L 73.584 380.16 
z
" style="fill: #ffffff"/>
   </g>
   <g id="patch_18">
    <path d="M 73.584 432.432 
L 339.53472 432.432 
L 339.53472 403.92 
L 73.584 403.92 
z
" clip-path="url(#p54d3c701c0)" style="fill: #f7e1e1"/>
   </g>
   <g id="patch_19">
    <path d="M 339.53472 432.432 
L 387.640512 432.432 
L 387.640512 403.92 
L 339.53472 403.92 
z
" clip-path="url(#p54d3c701c0)" style="fill: #fbf2cf"/>
   </g>
   <g id="patch_20">
    <path d="M 387.640512 432.432 
L 464.688 432.432 
L 464.688 403.92 
L 387.640512 403.92 
z
" clip-path="url(#p54d3c701c0)" style="fill: #def0e1"/>
   </g>
   <g id="matplotlib.axis_3">
    <g id="xtick_1">
     <g id="line2d_1"/>
     <g id="text_22">
      <text style="font-size: 10px; font-family: 'DejaVu Sans'; text-anchor: middle" x="73.584" y="467.290437" transform="rotate(-0 73.584 467.290437)">0</text>
     </g>
    </g>
    <g id="xtick_2">
     <g id="line2d_2"/>
     <g id="text_23">
      <text style="font-size: 10px; font-family: 'DejaVu Sans'; text-anchor: middle" x="151.8048" y="467.290437" transform="rotate(-0 151.8048 467.290437)">20</text>
     </g>
    </g>
    <g id="xtick_3">
     <g id="line2d_3"/>
     <g id="text_24">
      <text style="font-size: 10px; font-family: 'DejaVu Sans'; text-anchor: middle" x="230.0256" y="467.290437" transform="rotate(-0 230.0256 467.290437)">40</text>
     </g>
    </g>
    <g id="xtick_4">
     <g id="line2d_4"/>
     <g id="text_25">
      <text style="font-size: 10px; font-family: 'DejaVu Sans'; text-anchor: middle" x="308.2464" y="467.290437" transform="rotate(-0 308.2464 467.290437)">60</text>
     </g>
    </g>
    <g id="xtick_5">
     <g id="line2d_5"/>
     <g id="text_26">
      <text style="font-size: 10px; font-family: 'DejaVu Sans'; text-anchor: middle" x="386.4672" y="467.290437" transform="rotate(-0 386.4672 467.290437)">80</text>
     </g>
    </g>
    <g id="xtick_6">
     <g id="line2d_6"/>
     <g id="text_27">
      <text style="font-size: 10px; font-family: 'DejaVu Sans'; text-anchor: middle" x="464.688" y="467.290437" transform="rotate(-0 464.688 467.290437)">100</text>
     </g>
    </g>
    <g id="text_28">
     <text style="font-size: 9px; font-family: 'DejaVu Sans'; text-anchor: middle" x="269.136" y="480.208719" transform="rotate(-0 269.136 480.208719)">SUS score (0–100)</text>
    </g>
   </g>
   <g id="matplotlib.axis_4"/>
   <g id="patch_21">
    <path d="M 73.584 456.192 
L 464.688 456.192 
" style="fill: none; stroke: #7a828b; stroke-width: 0.8; stroke-linejoin: miter; stroke-linecap: square"/>
   </g>
   <g id="text_29">
    <text style="font-weight: 700; font-size: 10.5px; font-family: 'DejaVu Sans'; text-anchor: middle; fill: #6a2c91" x="414.82224" y="396.350728" transform="rotate(-0 414.82224 396.350728)">87.50  (SD 5.27)  ·  Grade A</text>
   </g>
   <g id="text_30">
    <text style="font-size: 7.6px; font-family: 'DejaVu Sans'; fill: #4a515a" transform="translate(323.929783 454.046812)">Average</text>
    <text style="font-size: 7.6px; font-family: 'DejaVu Sans'; fill: #4a515a" transform="translate(334.69922 462.55715)">68</text>
   </g>
   <g id="text_31">
    <text style="font-size: 7.6px; font-family: 'DejaVu Sans'; fill: #4a515a" transform="translate(363.509324 454.046812)">Excellent (A)</text>
    <text style="font-size: 7.6px; font-family: 'DejaVu Sans'; fill: #4a515a" transform="translate(379.179575 462.55715)">80.3</text>
   </g>
   <g id="line2d_7">
    <path d="M 339.53472 456.192 
L 339.53472 380.16 
" clip-path="url(#p54d3c701c0)" style="fill: none; stroke-dasharray: 4.44,1.92; stroke-dashoffset: 0; stroke: #6b7178; stroke-width: 1.2"/>
   </g>
   <g id="line2d_8">
    <path d="M 387.640512 456.192 
L 387.640512 380.16 
" clip-path="url(#p54d3c701c0)" style="fill: none; stroke-dasharray: 4.44,1.92; stroke-dashoffset: 0; stroke: #6b7178; stroke-width: 1.2"/>
   </g>
   <g id="LineCollection_1">
    <path d="M 396.127469 418.176 
L 433.517011 418.176 
" clip-path="url(#p54d3c701c0)" style="fill: none; stroke: #6a2c91; stroke-width: 2.2"/>
   </g>
   <g id="line2d_9">
    <defs>
     <path id="mb013b25505" d="M 0 6 
L 0 -6 
" style="stroke: #6a2c91"/>
    </defs>
    <g clip-path="url(#p54d3c701c0)">
     <use xlink:href="#mb013b25505" x="396.127469" y="418.176" style="fill: #6a2c91; stroke: #6a2c91"/>
    </g>
   </g>
   <g id="line2d_10">
    <g clip-path="url(#p54d3c701c0)">
     <use xlink:href="#mb013b25505" x="433.517011" y="418.176" style="fill: #6a2c91; stroke: #6a2c91"/>
    </g>
   </g>
   <g id="line2d_11">
    <defs>
     <path id="m435492db7b" d="M 0 6.5 
C 1.72382 6.5 3.377269 5.815119 4.596194 4.596194 
C 5.815119 3.377269 6.5 1.72382 6.5 0 
C 6.5 -1.72382 5.815119 -3.377269 4.596194 -4.596194 
C 3.377269 -5.815119 1.72382 -6.5 0 -6.5 
C -1.72382 -6.5 -3.377269 -5.815119 -4.596194 -4.596194 
C -5.815119 -3.377269 -6.5 -1.72382 -6.5 0 
C -6.5 1.72382 -5.815119 3.377269 -4.596194 4.596194 
C -3.377269 5.815119 -1.72382 6.5 0 6.5 
z
" style="stroke: #6a2c91"/>
    </defs>
    <g clip-path="url(#p54d3c701c0)">
     <use xlink:href="#m435492db7b" x="414.82224" y="418.176" style="fill: #6a2c91; stroke: #6a2c91"/>
    </g>
   </g>
  </g>
  <g id="axes_4">
   <g id="patch_22">
    <path d="M 605.808 475.2 
L 943.488 475.2 
L 943.488 370.656 
L 605.808 370.656 
z
" style="fill: #ffffff"/>
   </g>
   <g id="matplotlib.axis_5">
    <g id="xtick_7">
     <g id="line2d_12">
      <path d="M 605.808 475.2 
L 605.808 370.656 
" clip-path="url(#p070c221a08)" style="fill: none; stroke: #e9ecef; stroke-width: 0.8; stroke-linecap: square"/>
     </g>
     <g id="line2d_13"/>
     <g id="text_32">
      <text style="font-size: 8px; font-family: 'DejaVu Sans'; text-anchor: middle" x="605.808" y="484.77875" transform="rotate(-0 605.808 484.77875)">0</text>
     </g>
    </g>
    <g id="xtick_8">
     <g id="line2d_14">
      <path d="M 670.746462 475.2 
L 670.746462 370.656 
" clip-path="url(#p070c221a08)" style="fill: none; stroke: #e9ecef; stroke-width: 0.8; stroke-linecap: square"/>
     </g>
     <g id="line2d_15"/>
     <g id="text_33">
      <text style="font-size: 8px; font-family: 'DejaVu Sans'; text-anchor: middle" x="670.746462" y="484.77875" transform="rotate(-0 670.746462 484.77875)">1</text>
     </g>
    </g>
    <g id="xtick_9">
     <g id="line2d_16">
      <path d="M 735.684923 475.2 
L 735.684923 370.656 
" clip-path="url(#p070c221a08)" style="fill: none; stroke: #e9ecef; stroke-width: 0.8; stroke-linecap: square"/>
     </g>
     <g id="line2d_17"/>
     <g id="text_34">
      <text style="font-size: 8px; font-family: 'DejaVu Sans'; text-anchor: middle" x="735.684923" y="484.77875" transform="rotate(-0 735.684923 484.77875)">2</text>
     </g>
    </g>
    <g id="xtick_10">
     <g id="line2d_18">
      <path d="M 800.623385 475.2 
L 800.623385 370.656 
" clip-path="url(#p070c221a08)" style="fill: none; stroke: #e9ecef; stroke-width: 0.8; stroke-linecap: square"/>
     </g>
     <g id="line2d_19"/>
     <g id="text_35">
      <text style="font-size: 8px; font-family: 'DejaVu Sans'; text-anchor: middle" x="800.623385" y="484.77875" transform="rotate(-0 800.623385 484.77875)">3</text>
     </g>
    </g>
    <g id="xtick_11">
     <g id="line2d_20">
      <path d="M 865.561846 475.2 
L 865.561846 370.656 
" clip-path="url(#p070c221a08)" style="fill: none; stroke: #e9ecef; stroke-width: 0.8; stroke-linecap: square"/>
     </g>
     <g id="line2d_21"/>
     <g id="text_36">
      <text style="font-size: 8px; font-family: 'DejaVu Sans'; text-anchor: middle" x="865.561846" y="484.77875" transform="rotate(-0 865.561846 484.77875)">4</text>
     </g>
    </g>
    <g id="xtick_12">
     <g id="line2d_22">
      <path d="M 930.500308 475.2 
L 930.500308 370.656 
" clip-path="url(#p070c221a08)" style="fill: none; stroke: #e9ecef; stroke-width: 0.8; stroke-linecap: square"/>
     </g>
     <g id="line2d_23"/>
     <g id="text_37">
      <text style="font-size: 8px; font-family: 'DejaVu Sans'; text-anchor: middle" x="930.500308" y="484.77875" transform="rotate(-0 930.500308 484.77875)">5</text>
     </g>
    </g>
    <g id="text_38">
     <text style="font-size: 8.6px; font-family: 'DejaVu Sans'; text-anchor: middle" x="774.648" y="496.977156" transform="rotate(-0 774.648 496.977156)">Mean rating (1–5)</text>
    </g>
   </g>
   <g id="matplotlib.axis_6">
    <g id="ytick_1">
     <g id="line2d_24"/>
     <g id="text_39">
      <text style="font-size: 7.2px; font-family: 'DejaVu Sans'; text-anchor: end" x="602.308" y="381.390146" transform="rotate(-0 602.308 381.390146)">Q1 predict/nav</text>
     </g>
    </g>
    <g id="ytick_2">
     <g id="line2d_25"/>
     <g id="text_40">
      <text style="font-size: 7.2px; font-family: 'DejaVu Sans'; text-anchor: end" x="602.308" y="391.228655" transform="rotate(-0 602.308 391.228655)">Q2 instructions/labels</text>
     </g>
    </g>
    <g id="ytick_3">
     <g id="line2d_26"/>
     <g id="text_41">
      <text style="font-size: 7.2px; font-family: 'DejaVu Sans'; text-anchor: end" x="602.308" y="401.067164" transform="rotate(-0 602.308 401.067164)">Q3 keyboard access</text>
     </g>
    </g>
    <g id="ytick_4">
     <g id="line2d_27"/>
     <g id="text_42">
      <text style="font-size: 7.2px; font-family: 'DejaVu Sans'; text-anchor: end" x="602.308" y="410.905674" transform="rotate(-0 602.308 410.905674)">Q4 colour contrast</text>
     </g>
    </g>
    <g id="ytick_5">
     <g id="line2d_28"/>
     <g id="text_43">
      <text style="font-size: 7.2px; font-family: 'DejaVu Sans'; text-anchor: end" x="602.308" y="420.744183" transform="rotate(-0 602.308 420.744183)">Q5 error messages</text>
     </g>
    </g>
    <g id="ytick_6">
     <g id="line2d_29"/>
     <g id="text_44">
      <text style="font-size: 7.2px; font-family: 'DejaVu Sans'; text-anchor: end" x="602.308" y="430.582692" transform="rotate(-0 602.308 430.582692)">Q6 in control</text>
     </g>
    </g>
    <g id="ytick_7">
     <g id="line2d_30"/>
     <g id="text_45">
      <text style="font-size: 7.2px; font-family: 'DejaVu Sans'; text-anchor: end" x="602.308" y="440.421201" transform="rotate(-0 602.308 440.421201)">Q7 independent use</text>
     </g>
    </g>
    <g id="ytick_8">
     <g id="line2d_31"/>
     <g id="text_46">
      <text style="font-size: 7.2px; font-family: 'DejaVu Sans'; text-anchor: end" x="602.308" y="450.259711" transform="rotate(-0 602.308 450.259711)">Q8 forgiving design</text>
     </g>
    </g>
    <g id="ytick_9">
     <g id="line2d_32"/>
     <g id="text_47">
      <text style="font-size: 7.2px; font-family: 'DejaVu Sans'; text-anchor: end" x="602.308" y="460.09822" transform="rotate(-0 602.308 460.09822)">Q9 info understood</text>
     </g>
    </g>
    <g id="ytick_10">
     <g id="line2d_33"/>
     <g id="text_48">
      <text style="font-size: 7.2px; font-family: 'DejaVu Sans'; text-anchor: end" x="602.308" y="469.936729" transform="rotate(-0 602.308 469.936729)">Q10 system response</text>
     </g>
    </g>
   </g>
   <g id="patch_23">
    <path d="M 605.808 475.2 
L 605.808 370.656 
" style="fill: none; stroke: #7a828b; stroke-width: 0.8; stroke-linejoin: miter; stroke-linecap: square"/>
   </g>
   <g id="patch_24">
    <path d="M 605.808 475.2 
L 943.488 475.2 
" style="fill: none; stroke: #7a828b; stroke-width: 0.8; stroke-linejoin: miter; stroke-linecap: square"/>
   </g>
   <g id="patch_25">
    <path d="M 605.808 381.901416 
L 917.512615 381.901416 
L 917.512615 375.408 
L 605.808 375.408 
z
" clip-path="url(#p070c221a08)" style="fill: #b5651d"/>
   </g>
   <g id="patch_26">
    <path d="M 605.808 391.739925 
L 891.53723 391.739925 
L 891.53723 385.246509 
L 605.808 385.246509 
z
" clip-path="url(#p070c221a08)" style="fill: #b5651d"/>
   </g>
   <g id="patch_27">
    <path d="M 605.808 401.578435 
L 898.031 401.578435 
L 898.031 395.085019 
L 605.808 395.085019 
z
" clip-path="url(#p070c221a08)" style="fill: #b5651d"/>
   </g>
   <g id="patch_28">
    <path d="M 605.808 411.416944 
L 917.512615 411.416944 
L 917.512615 404.923528 
L 605.808 404.923528 
z
" clip-path="url(#p070c221a08)" style="fill: #b5651d"/>
   </g>
   <g id="patch_29">
    <path d="M 605.808 421.255453 
L 878.5495 421.255453 
L 878.5495 414.762037 
L 605.808 414.762037 
z
" clip-path="url(#p070c221a08)" style="fill: #b5651d"/>
   </g>
   <g id="patch_30">
    <path d="M 605.808 431.093963 
L 898.031 431.093963 
L 898.031 424.600547 
L 605.808 424.600547 
z
" clip-path="url(#p070c221a08)" style="fill: #b5651d"/>
   </g>
   <g id="patch_31">
    <path d="M 605.808 440.932472 
L 872.0557 440.932472 
L 872.0557 434.439056 
L 605.808 434.439056 
z
" clip-path="url(#p070c221a08)" style="fill: #b5651d"/>
   </g>
   <g id="patch_32">
    <path d="M 605.808 450.770981 
L 911.0187 450.770981 
L 911.0187 444.277565 
L 605.808 444.277565 
z
" clip-path="url(#p070c221a08)" style="fill: #b5651d"/>
   </g>
   <g id="patch_33">
    <path d="M 605.808 460.609491 
L 865.5618 460.609491 
L 865.5618 454.116075 
L 605.808 454.116075 
z
" clip-path="url(#p070c221a08)" style="fill: #b5651d"/>
   </g>
   <g id="patch_34">
    <path d="M 605.808 470.448 
L 891.537 470.448 
L 891.537 463.954584 
L 605.808 463.954584 
z
" clip-path="url(#p070c221a08)" style="fill: #b5651d"/>
   </g>
   <g id="text_49">
    <text style="font-weight: 700; font-size: 7.4px; font-family: 'DejaVu Sans'; text-anchor: start; fill: #20242a" x="920.759538" y="380.696646" transform="rotate(-0 920.759538 380.696646)">4.8</text>
   </g>
   <g id="text_50">
    <text style="font-weight: 700; font-size: 7.4px; font-family: 'DejaVu Sans'; text-anchor: start; fill: #20242a" x="907.771846" y="390.535155" transform="rotate(-0 907.771846 390.535155)">4.4</text>
   </g>
   <g id="text_51">
    <text style="font-weight: 700; font-size: 7.4px; font-family: 'DejaVu Sans'; text-anchor: start; fill: #20242a" x="920.759538" y="400.373664" transform="rotate(-0 920.759538 400.373664)">4.5</text>
   </g>
   <g id="text_52">
    <text style="font-weight: 700; font-size: 7.4px; font-family: 'DejaVu Sans'; text-anchor: start; fill: #20242a" x="920.759538" y="410.212174" transform="rotate(-0 920.759538 410.212174)">4.8</text>
   </g>
   <g id="text_53">
    <text style="font-weight: 700; font-size: 7.4px; font-family: 'DejaVu Sans'; text-anchor: start; fill: #20242a" x="907.771846" y="420.050683" transform="rotate(-0 907.771846 420.050683)">4.2</text>
   </g>
   <g id="text_54">
    <text style="font-weight: 700; font-size: 7.4px; font-family: 'DejaVu Sans'; text-anchor: start; fill: #20242a" x="881.796462" y="429.889192" transform="rotate(-0 881.796462 429.889192)">4.5</text>
   </g>
   <g id="text_55">
    <text style="font-weight: 700; font-size: 7.4px; font-family: 'DejaVu Sans'; text-anchor: start; fill: #20242a" x="868.808769" y="439.727701" transform="rotate(-0 868.808769 439.727701)">4.1</text>
   </g>
   <g id="text_56">
    <text style="font-weight: 700; font-size: 7.4px; font-family: 'DejaVu Sans'; text-anchor: start; fill: #20242a" x="907.771846" y="449.566211" transform="rotate(-0 907.771846 449.566211)">4.7</text>
   </g>
   <g id="text_57">
    <text style="font-weight: 700; font-size: 7.4px; font-family: 'DejaVu Sans'; text-anchor: start; fill: #20242a" x="894.784154" y="459.40472" transform="rotate(-0 894.784154 459.40472)">4.0</text>
   </g>
   <g id="text_58">
    <text style="font-weight: 700; font-size: 7.4px; font-family: 'DejaVu Sans'; text-anchor: start; fill: #20242a" x="881.796462" y="469.243229" transform="rotate(-0 881.796462 469.243229)">4.4</text>
   </g>
   <g id="text_59">
    <text style="font-weight: 700; font-size: 7.6px; font-family: 'DejaVu Sans'; text-anchor: middle; fill: #6a2c91" x="892.836" y="366.251785" transform="rotate(-0 892.836 366.251785)">mean 4.44</text>
   </g>
   <g id="line2d_34">
    <path d="M 894.135 475.2 
L 894.135 370.656 
" clip-path="url(#p070c221a08)" style="fill: none; stroke-dasharray: 4.81,2.08; stroke-dashoffset: 0; stroke: #6a2c91; stroke-width: 1.3"/>
   </g>
  </g>
  <g id="line2d_35">
   <path d="M 40.32 59.5584 
L 980.784 59.5584 
" style="fill: none; stroke: #d5dae0; stroke-linecap: square"/>
  </g>
  <g id="line2d_36">
   <path d="M 52.416 101.376 
L 92.736 101.376 
" style="fill: none; stroke: #2e7d46; stroke-width: 3.2; stroke-linecap: square"/>
  </g>
  <g id="line2d_37">
   <path d="M 55.44 242.0352 
L 478.8 242.0352 
" style="fill: none; stroke: #eceff2; stroke-linecap: square"/>
  </g>
  <g id="line2d_38">
   <path d="M 539.28 101.376 
L 579.6 101.376 
" style="fill: none; stroke: #2e4a9e; stroke-width: 3.2; stroke-linecap: square"/>
  </g>
  <g id="line2d_39">
   <path d="M 542.304 242.0352 
L 965.664 242.0352 
" style="fill: none; stroke: #eceff2; stroke-linecap: square"/>
  </g>
  <g id="line2d_40">
   <path d="M 52.416 357.984 
L 92.736 357.984 
" style="fill: none; stroke: #6a2c91; stroke-width: 3.2; stroke-linecap: square"/>
  </g>
  <g id="line2d_41">
   <path d="M 55.44 498.6432 
L 478.8 498.6432 
" style="fill: none; stroke: #eceff2; stroke-linecap: square"/>
  </g>
  <g id="line2d_42">
   <path d="M 539.28 357.984 
L 579.6 357.984 
" style="fill: none; stroke: #b5651d; stroke-width: 3.2; stroke-linecap: square"/>
  </g>
  <g id="line2d_43">
   <path d="M 542.304 498.6432 
L 965.664 498.6432 
" style="fill: none; stroke: #eceff2; stroke-linecap: square"/>
  </g>
  <g id="line2d_44">
   <path d="M 40.32 579.1104 
L 980.784 579.1104 
" style="fill: none; stroke: #d5dae0; stroke-linecap: square"/>
  </g>
  <g id="text_60">
   <text style="font-weight: 700; font-size: 15px; font-family: 'DejaVu Sans'; text-anchor: start; fill: #20242a" x="40.32" y="26.6112" transform="rotate(-0 40.32 26.6112)">Expert evaluation of BCHAIN-ACCESS</text>
  </g>
  <g id="text_61">
   <text style="font-size: 9px; font-family: 'DejaVu Sans'; text-anchor: start; fill: #4a515a" x="40.32" y="49.4208" transform="rotate(-0 40.32 49.4208)">Expert panel: N = 10 multidisciplinary experts (≥ 5 years) — HCI/UX design, software engineering, healthcare informatics, assistive technology / occupational therapy, and blockchain systems.</text>
  </g>
  <g id="text_62">
   <text style="font-weight: 700; font-size: 11.4px; font-family: 'DejaVu Sans'; text-anchor: start; fill: #2e7d46" x="55.44" y="92.5056" transform="rotate(-0 55.44 92.5056)">1 · Heuristic evaluation — per-heuristic severity</text>
  </g>
  <g id="text_63">
   <text style="font-weight: 700; font-size: 8.4px; font-family: 'DejaVu Sans'; text-anchor: start; fill: #2e7d46" x="55.44" y="256.021088" transform="rotate(-0 55.44 256.021088)">Findings:  </text>
  </g>
  <g id="text_64">
   <text style="font-size: 8.4px; font-family: 'DejaVu Sans'; text-anchor: start; fill: #4a515a" x="55.44" y="271.227487" transform="rotate(-0 55.44 271.227487)">only H9 (Error Recovery) rated 1 (cosmetic); 0 serious or catastrophic issues.</text>
  </g>
  <g id="text_65">
   <text style="font-weight: 700; font-size: 8.6px; font-family: 'DejaVu Sans'; text-anchor: start; fill: #2e7d46" x="55.44" y="288.9216" transform="rotate(-0 55.44 288.9216)">Outcome:  </text>
  </g>
  <g id="text_66">
   <text style="font-size: 8.6px; font-family: 'DejaVu Sans'; text-anchor: start; fill: #4a515a" x="98.784" y="288.9216" transform="rotate(-0 98.784 288.9216)">mean severity 0.1 — below the 0.5 compliance gate.</text>
  </g>
  <g id="text_67">
   <text style="font-size: 8.2px; font-family: 'DejaVu Sans'; text-anchor: start; fill: #4a515a" x="85.68" y="123.552" transform="rotate(-0 85.68 123.552)">Final severity per Nielsen heuristic (scale 0–4)</text>
  </g>
  <g id="text_68">
   <text style="font-weight: 700; font-size: 8.6px; font-family: 'DejaVu Sans'; text-anchor: start; fill: #20242a" x="85.68" y="215.424" transform="rotate(-0 85.68 215.424)">Mean 0.1  ·  max = 1 (H9)  ·  0 ratings ≥ 2  ·  N = 10 experts</text>
  </g>
  <g id="text_69">
   <text style="font-weight: 700; font-size: 11.4px; font-family: 'DejaVu Sans'; text-anchor: start; fill: #2e4a9e" x="542.304" y="92.5056" transform="rotate(-0 542.304 92.5056)">2 · Cognitive walkthrough — task-based evaluation</text>
  </g>
  <g id="text_70">
   <text style="font-weight: 700; font-size: 8.4px; font-family: 'DejaVu Sans'; text-anchor: start; fill: #2e4a9e" x="542.304" y="256.021088" transform="rotate(-0 542.304 256.021088)">Findings:  </text>
  </g>
  <g id="text_71">
   <text style="font-size: 8.4px; font-family: 'DejaVu Sans'; text-anchor: start; fill: #4a515a" x="542.304" y="271.227487" transform="rotate(-0 542.304 271.227487)">all 8 tasks completed without assistance; fixed countdown flagged for adjustability (E7, E9).</text>
  </g>
  <g id="text_72">
   <text style="font-weight: 700; font-size: 8.6px; font-family: 'DejaVu Sans'; text-anchor: start; fill: #2e4a9e" x="542.304" y="288.9216" transform="rotate(-0 542.304 288.9216)">Outcome:  </text>
  </g>
  <g id="text_73">
   <text style="font-size: 8.6px; font-family: 'DejaVu Sans'; text-anchor: start; fill: #4a515a" x="585.648" y="288.9216" transform="rotate(-0 585.648 288.9216)">100% task success (80 / 80).</text>
  </g>
  <g id="text_74">
   <text style="font-weight: 700; font-size: 13px; font-family: 'DejaVu Sans'; text-anchor: start; fill: #20242a" x="718.704" y="114.048" transform="rotate(-0 718.704 114.048)">8</text>
  </g>
  <g id="text_75">
   <text style="font-size: 8.4px; font-family: 'DejaVu Sans'; text-anchor: start; fill: #4a515a" x="751.968" y="113.197875" transform="rotate(-0 751.968 113.197875)">tasks completed</text>
  </g>
  <g id="text_76">
   <text style="font-weight: 700; font-size: 13px; font-family: 'DejaVu Sans'; text-anchor: start; fill: #2e7d46" x="718.704" y="146.9952" transform="rotate(-0 718.704 146.9952)">0</text>
  </g>
  <g id="text_77">
   <text style="font-size: 8.4px; font-family: 'DejaVu Sans'; text-anchor: start; fill: #4a515a" x="751.968" y="146.145075" transform="rotate(-0 751.968 146.145075)">errors</text>
  </g>
  <g id="text_78">
   <text style="font-weight: 700; font-size: 13px; font-family: 'DejaVu Sans'; text-anchor: start; fill: #b5651d" x="718.704" y="179.9424" transform="rotate(-0 718.704 179.9424)">1.9</text>
  </g>
  <g id="text_79">
   <text style="font-size: 8.4px; font-family: 'DejaVu Sans'; text-anchor: start; fill: #4a515a" x="751.968" y="179.092275" transform="rotate(-0 751.968 179.092275)">mean difficulty (/5)</text>
  </g>
  <g id="text_80">
   <text style="font-size: 6.9px; font-family: 'DejaVu Sans'; text-anchor: start; fill: #4a515a" x="549.36" y="212.259169" transform="rotate(-0 549.36 212.259169)">Tasks (T1–T8): Unlock · View Record · Check Access · Grant Access · Review · Confirm · Revoke · FAQ</text>
  </g>
  <g id="text_81">
   <text style="font-weight: 700; font-size: 11.4px; font-family: 'DejaVu Sans'; text-anchor: start; fill: #6a2c91" x="55.44" y="349.1136" transform="rotate(-0 55.44 349.1136)">3 · System Usability Scale (Brooke, 1996)</text>
  </g>
  <g id="text_82">
   <text style="font-weight: 700; font-size: 8.4px; font-family: 'DejaVu Sans'; text-anchor: start; fill: #6a2c91" x="55.44" y="512.629087" transform="rotate(-0 55.44 512.629087)">Findings:  </text>
  </g>
  <g id="text_83">
   <text style="font-size: 8.4px; font-family: 'DejaVu Sans'; text-anchor: start; fill: #4a515a" x="55.44" y="527.835487" transform="rotate(-0 55.44 527.835487)">87.50 exceeds the 80.3 'excellent (A)' threshold — far above the 68 average.</text>
  </g>
  <g id="text_84">
   <text style="font-weight: 700; font-size: 8.6px; font-family: 'DejaVu Sans'; text-anchor: start; fill: #6a2c91" x="55.44" y="545.5296" transform="rotate(-0 55.44 545.5296)">Outcome:  </text>
  </g>
  <g id="text_85">
   <text style="font-size: 8.6px; font-family: 'DejaVu Sans'; text-anchor: start; fill: #4a515a" x="98.784" y="545.5296" transform="rotate(-0 98.784 545.5296)">users rated the system as excellent.</text>
  </g>
  <g id="text_86">
   <text style="font-weight: 700; font-size: 11.4px; font-family: 'DejaVu Sans'; text-anchor: start; fill: #b5651d" x="542.304" y="349.1136" transform="rotate(-0 542.304 349.1136)">4 · Accessibility questionnaire — item means (1–5)</text>
  </g>
  <g id="text_87">
   <text style="font-weight: 700; font-size: 8.4px; font-family: 'DejaVu Sans'; text-anchor: start; fill: #b5651d" x="542.304" y="512.629087" transform="rotate(-0 542.304 512.629087)">Findings:  </text>
  </g>
  <g id="text_88">
   <text style="font-size: 8.4px; font-family: 'DejaVu Sans'; text-anchor: start; fill: #4a515a" x="542.304" y="527.835487" transform="rotate(-0 542.304 527.835487)">all 10 items ≥ 4.0 (high 4.8, low 4.0).</text>
  </g>
  <g id="text_89">
   <text style="font-weight: 700; font-size: 8.6px; font-family: 'DejaVu Sans'; text-anchor: start; fill: #b5651d" x="542.304" y="545.5296" transform="rotate(-0 542.304 545.5296)">Outcome:  </text>
  </g>
  <g id="text_90">
   <text style="font-size: 8.6px; font-family: 'DejaVu Sans'; text-anchor: start; fill: #4a515a" x="585.648" y="545.5296" transform="rotate(-0 585.648 545.5296)">high accessibility satisfaction — overall 4.44 / 5.</text>
  </g>
  <g id="text_91">
   <text style="font-size: 9px; font-family: 'DejaVu Sans'; fill: #20242a" transform="translate(40.32 588.040369)">Overall outcome — converging evidence across all four methods indicates BCHAIN-ACCESS is usable, understandable, and accessible, supporting inclusive</text>
   <text style="font-size: 9px; font-family: 'DejaVu Sans'; fill: #20242a" transform="translate(40.32 598.1184)">interaction while maintaining security and compliance.</text>
  </g>
  <g id="text_92">
   <text style="font-size: 9px; font-family: 'DejaVu Sans'; text-anchor: start; fill: #4a515a" x="40.32" y="620.928" transform="rotate(-0 40.32 620.928)">Next step — empirical validation with people with disabilities (PwDs) in real-world healthcare environments.</text>
  </g>
 </g>
 <defs>
  <clipPath id="pc69fcfcf91">
   <rect x="85.68" y="129.888" width="362.88" height="53.856"/>
  </clipPath>
  <clipPath id="p54d3c701c0">
   <rect x="73.584" y="380.16" width="391.104" height="76.032"/>
  </clipPath>
  <clipPath id="p070c221a08">
   <rect x="605.808" y="370.656" width="337.68" height="104.544"/>
  </clipPath>
 </defs>
</svg>
